<?xml version="1.0" encoding="utf-8"?>
<!-- Generator: Adobe Illustrator 16.0.0, SVG Export Plug-In . SVG Version: 6.00 Build 0)  -->
<!DOCTYPE svg PUBLIC "-//W3C//DTD SVG 1.1//EN" "http://www.w3.org/Graphics/SVG/1.1/DTD/svg11.dtd">
<svg version="1.1" id="Layer_1" xmlns="http://www.w3.org/2000/svg" xmlns:xlink="http://www.w3.org/1999/xlink" x="0px" y="0px"
	 width="40px" height="40px" viewBox="0 0 40 40" enable-background="new 0 0 40 40" xml:space="preserve">
<path fill-rule="evenodd" clip-rule="evenodd" d="M25.758,8.572c-1.939-5.106-9.454-5.022-11.27,0.137l-0.042,0.165
	c1.649,1.416,2.757,3.043,2.773,5.327v2.111c1.55-0.913,3.718-0.849,5.36-0.249l0.501,0.232c0.001-2.594,0.064-5.056,2.151-6.951
	C25.5,9.144,26.016,8.964,25.758,8.572z M12.601,9.062c-3.561-1.353-7.428,1.362-7.452,5.143v3.428
	c1.855-2.42,4.733-3.705,7.759-2.6c1.069,0.567,2.081,1.084,2.86,2.052l0.054,0.081l0.325-0.278c0-2.358,0.219-4.743-1.612-6.571
	c-0.3-0.243-0.601-0.486-0.901-0.729C13.29,9.412,12.945,9.237,12.601,9.062z M35.146,14.057c-0.108-3.686-3.905-6.298-7.389-5.017
	c-0.347,0.171-0.693,0.341-1.04,0.513c-1.509,1.193-2.557,2.618-2.569,4.646v2.729l0.354,0.249l0.561-0.672l1.088-0.857
	c1.093-0.539,2.073-0.97,3.33-1.01c1.881-0.022,3.69,0.71,4.979,2.091c0.229,0.302,0.46,0.605,0.689,0.907
	C35.147,16.442,35.147,15.25,35.146,14.057z M13.08,24.775L13.08,24.775L13.08,24.775z M27.219,24.775
	c0,1.916,0.186,3.926-0.057,5.83l-0.025,0.099c1.182,0,2.445,0.125,3.61-0.11c2.515-0.51,4.354-2.761,4.401-5.317
	c0-1.37-0.001-2.739-0.002-4.109c-0.002-3.72-3.83-6.378-7.322-5.151c-0.377,0.184-0.754,0.369-1.131,0.553
	c-0.326,0.265-0.651,0.53-0.978,0.795l-0.428,0.545c1.133,1.415,1.894,2.822,1.931,4.705v0.092l0,0
	C27.219,23.396,27.219,24.085,27.219,24.775z M12.604,16.062c-3.532-1.34-7.383,1.322-7.454,5.072c0,1.369,0.001,2.739,0.001,4.108
	c0.001,3,2.526,5.444,5.498,5.463h2.505l-0.074-0.908v-5.021h0v-1.07h0c0-1.686,0.148-3.257,1.069-4.731l0.827-1.086l0.019-0.016
	l-0.551-0.649c-0.288-0.224-0.575-0.448-0.862-0.672C13.255,16.388,12.929,16.225,12.604,16.062z M31.697,31.448l0.057-0.019
	L31.697,31.448z M31.672,31.456l-0.031,0.011L31.672,31.456z M31.6,31.479l-0.017,0.005L31.6,31.479z M23.913,18.073
	c-0.26-0.234-0.547-0.438-0.833-0.598c-1.583-0.743-3.22-1.031-4.922-0.432c-0.391,0.188-0.781,0.377-1.173,0.564
	c-0.342,0.268-0.682,0.537-1.025,0.803c-1.04,1.271-1.777,2.513-1.811,4.216c0,1.305,0,2.608,0.001,3.913
	c0,1.355-0.144,2.81,0.08,4.155c0.657,2.076,1.601,3.791,3.787,4.62c3.003,1.143,6.471-0.375,7.688-3.342l0.315-1.037l0.126-1.076
	c0-1.579,0-3.158,0-4.738c0-2.197,0.205-4.513-1.436-6.263L24.34,18.41C24.197,18.298,24.055,18.186,23.913,18.073z M27.671,32.996
	c-2.12,5.035-8.672,6.568-12.812,3.049c-0.966-0.821-1.74-1.879-2.228-3.049c-2.248,0-4.383,0.017-6.298-1.334
	c-1.318-0.929-2.336-2.206-2.886-3.729c-0.282-0.779-0.438-1.617-0.446-2.445C2.979,23.243,3,20.997,3,18.751
	c0-2.434-0.372-5.177,0.638-7.484c1.53-3.495,5.575-5.385,9.239-4.251c1.669-3.348,5.58-5.097,9.193-4.23
	c2.292,0.549,4.287,2.125,5.353,4.229l0.001,0.001c3.825-1.171,7.993,0.91,9.401,4.637c0.336,0.89,0.483,1.84,0.483,2.789
	c0,2.663,0,5.326,0,7.989c0,2.293,0.192,4.577-0.971,6.647c-0.733,1.306-1.887,2.441-3.237,3.101
	C31.341,33.038,29.596,32.996,27.671,32.996z"/>
</svg>
