<?xml version="1.0" encoding="utf-8"?>
<!-- Generator: Adobe Illustrator 16.0.0, SVG Export Plug-In . SVG Version: 6.00 Build 0)  -->
<!DOCTYPE svg PUBLIC "-//W3C//DTD SVG 1.1//EN" "http://www.w3.org/Graphics/SVG/1.1/DTD/svg11.dtd">
<svg version="1.1" id="Layer_1" xmlns="http://www.w3.org/2000/svg" xmlns:xlink="http://www.w3.org/1999/xlink" x="0px" y="0px"
	 width="40px" height="40px" viewBox="0 0 40 40" enable-background="new 0 0 40 40" xml:space="preserve">
<g>
	<defs>
		<circle id="SVGID_1_" cx="20.02" cy="19.99" r="18"/>
	</defs>
	<clipPath id="SVGID_2_">
		<use xlink:href="#SVGID_1_"  overflow="visible"/>
	</clipPath>
	<g clip-path="url(#SVGID_2_)">
		<defs>
			<rect id="SVGID_3_" x="-873.98" y="-369.01" width="1440" height="899.999"/>
		</defs>
		<clipPath id="SVGID_4_">
			<use xlink:href="#SVGID_3_"  overflow="visible"/>
		</clipPath>
		<g clip-path="url(#SVGID_4_)" enable-background="new    ">
			<g>
				<defs>
					<rect id="SVGID_5_" x="2.02" y="1.99" width="36" height="36"/>
				</defs>
				<clipPath id="SVGID_6_">
					<use xlink:href="#SVGID_5_"  overflow="visible"/>
				</clipPath>
				<g clip-path="url(#SVGID_6_)">
					<defs>
						<path id="SVGID_7_" d="M37.502,23.903c0.442-1.562,0.679-3.21,0.679-4.913c0-9.943-8.059-18-18-18c-9.943,0-18,8.059-18,18
							c0,0.995,0.08,1.971,0.236,2.922v-3.447c0-3.556,2.879-6.433,6.432-6.433c1.568,0,3.008,0.563,4.127,1.5
							c0.344-3.554,3.346-6.331,6.983-6.331c3.646,0,6.641,2.774,6.985,6.331c1.116-0.936,2.556-1.5,4.126-1.5
							c3.545,0,6.433,2.876,6.433,6.424V23.903z"/>
					</defs>
					<clipPath id="SVGID_8_">
						<use xlink:href="#SVGID_7_"  overflow="visible"/>
					</clipPath>
					<g clip-path="url(#SVGID_8_)">
						<defs>
							<rect id="SVGID_9_" x="2.02" y="1.99" width="36" height="36"/>
						</defs>
						<clipPath id="SVGID_10_">
							<use xlink:href="#SVGID_9_"  overflow="visible"/>
						</clipPath>
						<rect x="-2.82" y="-4.01" clip-path="url(#SVGID_10_)" fill="#FFFFFF" width="46" height="32.913"/>
					</g>
				</g>
				<g clip-path="url(#SVGID_6_)">
					<defs>
						<path id="SVGID_11_" d="M28.756,41.948l-0.052,0.123l-0.086,0.189l-0.089,0.188l-0.094,0.186l-0.096,0.184l-0.103,0.178
							l-0.104,0.178l-0.111,0.174l-0.111,0.172l-0.116,0.172l-0.12,0.166l-0.122,0.168l-0.124,0.162l-0.13,0.16l-0.131,0.156
							l-0.137,0.154l-0.138,0.15l-0.143,0.148l-0.146,0.143l-0.148,0.141l-0.152,0.137l-0.153,0.135l-0.158,0.133l-0.162,0.125
							l-0.165,0.125l-0.165,0.121l-0.17,0.119l-0.17,0.115l-0.172,0.113l-0.176,0.109l-0.179,0.102l-0.181,0.1l-0.184,0.096
							l-0.186,0.094l-0.188,0.088l-0.191,0.082l-0.191,0.078l-0.194,0.074l-0.199,0.072l-0.198,0.068l-0.201,0.064l-0.203,0.059
							l-0.204,0.055l-0.198,0.049l-0.113,0.025L21.9,47.601l-0.106,0.021l-0.105,0.021l-0.211,0.035l-0.105,0.018l-0.215,0.029
							l-0.107,0.014l-0.108,0.012l-0.107,0.012l-0.109,0.01l-0.108,0.008l-0.108,0.008l-0.109,0.006l-0.109,0.004l-0.109,0.004
							h-0.219l-0.219-0.004l-0.11-0.002l-0.108-0.006l-0.109-0.006l-0.109-0.006l-0.107-0.01l-0.108-0.01l-0.107-0.01l-0.107-0.012
							l-0.108-0.016l-0.213-0.027l-0.105-0.018l-0.105-0.018l-0.211-0.041l-0.105-0.021l-0.104-0.023l-0.111-0.025l-0.199-0.047
							l-0.205-0.051l-0.203-0.061l-0.201-0.064l-0.198-0.066l-0.196-0.072l-0.195-0.074l-0.193-0.08l-0.19-0.082l-0.188-0.088
							l-0.186-0.092l-0.184-0.096l-0.182-0.1l-0.179-0.104l-0.177-0.107l-0.174-0.111l-0.171-0.115l-0.17-0.119l-0.166-0.121
							l-0.163-0.125l-0.16-0.127l-0.158-0.131l-0.154-0.135l-0.152-0.139l-0.148-0.139l-0.145-0.145l-0.144-0.148l-0.14-0.148
							l-0.135-0.156l-0.133-0.156l-0.129-0.158l-0.125-0.164l-0.123-0.166l-0.119-0.168l-0.116-0.17l-0.112-0.172l-0.107-0.176
							l-0.105-0.178l-0.101-0.18l-0.097-0.182l-0.094-0.186l-0.09-0.188l-0.086-0.189l-0.051-0.123H8.84H8.733l-0.114-0.002
							l-0.114-0.004l-0.115-0.006l-0.113-0.008l-0.113-0.01l-0.113-0.01l-0.112-0.01L7.825,41.89l-0.112-0.016L7.601,41.86
							l-0.11-0.018l-0.223-0.037l-0.109-0.021l-0.11-0.023L6.94,41.737l-0.109-0.023l-0.107-0.025l-0.215-0.055l-0.107-0.027
							l-0.105-0.031L6.19,41.546l-0.105-0.035l-0.104-0.033l-0.104-0.033L5.67,41.368L5.467,41.29l-0.102-0.043l-0.1-0.043
							l-0.1-0.047l-0.098-0.043l-0.1-0.047l-0.096-0.049L4.776,40.97L4.68,40.921L4.584,40.87l-0.096-0.053l-0.094-0.055
							l-0.094-0.055l-0.186-0.111l-0.182-0.117l-0.09-0.059l-0.088-0.064l-0.088-0.061l-0.088-0.062l-0.086-0.066l-0.086-0.064
							l-0.086-0.066l-0.084-0.068l-0.083-0.068l-0.083-0.07l-0.08-0.07l-0.081-0.07l-0.079-0.072l-0.157-0.143l-0.077-0.074
							l-0.076-0.074l-0.074-0.074l-0.075-0.078l-0.073-0.078l-0.072-0.076l-0.072-0.08l-0.071-0.08l-0.07-0.08l-0.069-0.082
							l-0.067-0.084l-0.066-0.08l-0.065-0.086l-0.066-0.084l-0.063-0.088l-0.063-0.09l-0.062-0.088l-0.061-0.088l-0.059-0.09
							l-0.059-0.09l-0.059-0.092l-0.055-0.09l-0.056-0.094l-0.107-0.187l-0.052-0.095l-0.051-0.096l-0.05-0.097l-0.049-0.097
							l-0.048-0.099l-0.047-0.098l-0.046-0.099l-0.044-0.1l-0.043-0.101l-0.043-0.102l-0.041-0.101l-0.039-0.103l-0.039-0.104
							l-0.037-0.102L0.37,35.873l-0.067-0.21l-0.031-0.105l-0.03-0.106l-0.029-0.107l-0.028-0.106l-0.026-0.108l-0.025-0.108
							l-0.024-0.11l-0.023-0.109l-0.021-0.109L0.042,34.58l-0.02-0.111l-0.018-0.111l-0.017-0.112l-0.015-0.109l-0.015-0.113
							l-0.012-0.113l-0.011-0.112l-0.01-0.116l-0.008-0.113l-0.006-0.115l-0.004-0.115l-0.004-0.114l-0.002-0.115v-0.104V20.122
							v-0.106l0.002-0.116l0.004-0.115l0.004-0.114l0.006-0.116l0.008-0.113l0.01-0.113l0.011-0.114l0.012-0.114l0.015-0.111
							l0.015-0.114l0.017-0.11l0.018-0.111l0.02-0.111l0.042-0.222l0.023-0.109l0.05-0.219l0.026-0.107l0.028-0.107l0.029-0.107
							l0.03-0.105l0.031-0.107l0.034-0.105l0.033-0.096l0.037-0.104l0.037-0.104l0.039-0.104l0.039-0.102l0.041-0.102l0.043-0.102
							l0.043-0.101l0.044-0.1l0.046-0.1l0.047-0.099l0.048-0.097l0.099-0.194l0.103-0.189l0.054-0.094l0.054-0.092l0.056-0.093
							l0.055-0.092l0.059-0.092l0.059-0.09l0.059-0.089l0.061-0.089l0.062-0.088l0.063-0.087l0.063-0.086l0.066-0.086l0.065-0.084
							l0.066-0.084l0.067-0.083l0.069-0.081l0.07-0.08l0.071-0.081l0.072-0.077l0.072-0.082l0.073-0.077l0.149-0.152l0.076-0.073
							l0.077-0.073l0.157-0.146l0.079-0.072l0.081-0.072l0.08-0.07l0.083-0.07l0.083-0.068l0.084-0.067l0.172-0.131l0.086-0.064
							l0.088-0.063l0.088-0.062l0.088-0.062l0.09-0.06l0.091-0.06l0.091-0.057l0.093-0.058l0.093-0.055l0.094-0.056l0.094-0.054
							l0.096-0.051l0.096-0.052l0.096-0.051l0.098-0.049l0.096-0.046l0.197-0.093l0.1-0.045l0.201-0.084l0.102-0.041l0.102-0.039
							l0.104-0.038l0.205-0.072l0.104-0.034l0.21-0.063l0.107-0.03l0.105-0.028l0.107-0.027l0.107-0.026l0.108-0.024l0.218-0.049
							l0.219-0.042l0.111-0.021l0.222-0.035l0.11-0.015l0.113-0.014l0.225-0.025l0.113-0.009l0.113-0.009l0.113-0.006l0.115-0.006
							l0.114-0.004l0.114-0.003h0.121l0.197,0.001l0.202,0.009l0.201,0.012l0.2,0.017l0.199,0.021l0.197,0.024l0.196,0.029
							l0.195,0.032l0.194,0.036l0.193,0.042l0.191,0.046l0.189,0.049l0.188,0.054l0.057,0.019l0.051-0.1l0.05-0.096l0.052-0.095
							l0.053-0.094l0.054-0.093l0.055-0.094l0.056-0.093l0.058-0.091l0.059-0.092l0.059-0.09l0.06-0.09l0.061-0.088l0.062-0.088
							l0.126-0.173l0.132-0.171l0.066-0.084l0.067-0.083l0.069-0.081l0.07-0.082l0.07-0.08l0.07-0.08l0.146-0.157l0.073-0.077
							l0.15-0.152l0.076-0.075l0.076-0.072l0.079-0.073l0.078-0.073L13.61,8.78l0.081-0.072l0.081-0.071l0.082-0.07l0.082-0.075
							l0.169-0.134L14.19,8.29l0.087-0.065l0.087-0.062l0.088-0.064l0.178-0.123l0.09-0.061l0.09-0.059l0.092-0.059l0.092-0.058
							l0.092-0.056l0.094-0.055l0.094-0.055l0.095-0.054l0.192-0.103l0.193-0.099l0.098-0.047l0.098-0.046l0.199-0.088l0.1-0.044
							l0.101-0.042l0.203-0.079l0.103-0.039l0.207-0.072l0.104-0.034l0.105-0.033l0.105-0.032l0.213-0.061l0.107-0.029l0.107-0.026
							l0.215-0.052l0.218-0.049l0.22-0.045l0.111-0.02l0.111-0.019l0.222-0.033l0.225-0.028l0.112-0.012l0.113-0.01l0.113-0.01
							l0.113-0.008l0.23-0.012l0.113-0.004l0.115-0.002l0.115-0.002l0.125,0.002l0.115,0.002l0.115,0.004l0.114,0.006l0.114,0.006
							l0.113,0.008l0.227,0.019L20.988,6.4l0.224,0.028l0.111,0.015l0.113,0.02l0.221,0.036l0.112,0.021l0.11,0.022l0.109,0.024
							l0.107,0.024l0.109,0.025l0.109,0.024l0.217,0.057l0.105,0.029l0.107,0.032l0.105,0.03l0.104,0.034l0.105,0.035l0.103,0.034
							l0.105,0.037l0.104,0.038l0.1,0.04l0.104,0.04l0.102,0.042l0.101,0.043l0.198,0.088l0.197,0.094l0.098,0.049l0.096,0.049
							l0.192,0.104l0.094,0.052l0.093,0.056l0.094,0.055l0.093,0.057l0.183,0.114l0.18,0.12l0.09,0.062l0.175,0.126l0.085,0.063
							l0.172,0.131l0.084,0.066l0.082,0.067l0.084,0.07l0.082,0.07l0.079,0.071l0.081,0.072l0.156,0.146l0.154,0.147l0.076,0.074
							l0.074,0.075l0.074,0.076l0.076,0.081l0.072,0.078l0.072,0.078l0.142,0.161l0.071,0.082l0.069,0.081l0.069,0.084l0.066,0.083
							l0.066,0.084l0.064,0.086l0.065,0.086l0.06,0.091l0.063,0.087l0.062,0.088l0.061,0.089l0.059,0.092l0.058,0.09l0.058,0.092
							l0.057,0.093l0.055,0.093l0.108,0.188l0.052,0.095l0.05,0.097l0.05,0.097l0.002,0.001l0.055-0.017l0.186-0.055l0.189-0.049
							l0.192-0.046l0.192-0.042l0.193-0.036l0.197-0.031l0.195-0.029l0.199-0.024l0.199-0.022l0.201-0.017l0.202-0.012l0.203-0.008
							l0.196-0.002h0.122l0.114,0.003l0.116,0.005l0.229,0.012l0.114,0.008l0.112,0.01l0.115,0.012l0.113,0.014l0.111,0.013
							l0.113,0.016l0.11,0.019l0.112,0.018l0.109,0.02l0.111,0.022l0.109,0.022l0.111,0.024l0.219,0.049l0.107,0.025l0.107,0.028
							l0.105,0.028l0.107,0.03l0.105,0.031l0.105,0.032l0.105,0.033l0.093,0.038l0.103,0.036l0.104,0.036l0.103,0.04l0.202,0.082
							l0.102,0.043l0.198,0.089l0.099,0.047l0.096,0.047l0.098,0.05l0.096,0.05l0.097,0.051l0.093,0.053l0.094,0.053l0.093,0.055
							l0.094,0.056l0.183,0.114l0.088,0.06l0.091,0.061l0.089,0.062l0.086,0.062l0.174,0.126l0.084,0.065l0.084,0.068l0.084,0.066
							l0.082,0.068l0.082,0.069l0.08,0.07l0.082,0.073l0.078,0.072l0.076,0.072l0.079,0.072l0.075,0.074l0.074,0.073l0.075,0.076
							l0.072,0.075l0.073,0.077l0.072,0.078l0.072,0.078l0.072,0.081l0.07,0.079l0.07,0.082l0.068,0.083l0.066,0.083l0.067,0.083
							l0.065,0.086l0.129,0.173l0.062,0.087l0.122,0.178l0.117,0.18l0.113,0.185l0.055,0.092l0.105,0.189l0.051,0.095l0.051,0.096
							l0.051,0.097l0.047,0.098l0.045,0.098l0.092,0.199l0.084,0.201l0.039,0.103l0.039,0.102l0.039,0.104l0.035,0.103l0.037,0.104
							l0.067,0.21l0.03,0.105l0.031,0.107l0.029,0.106l0.027,0.107l0.025,0.108l0.05,0.219l0.022,0.109l0.023,0.11l0.021,0.109
							l0.021,0.112l0.033,0.222l0.029,0.225l0.012,0.113l0.012,0.114l0.02,0.226l0.012,0.229l0.004,0.114l0.003,0.116v0.107v12.89
							v0.108l-0.003,0.114l-0.004,0.115l-0.012,0.229l-0.01,0.115l-0.01,0.114l-0.012,0.113l-0.012,0.112l-0.029,0.225l-0.018,0.112
							l-0.018,0.111l-0.021,0.112l-0.021,0.11l-0.023,0.109l-0.023,0.11l-0.049,0.219l-0.026,0.107l-0.028,0.107l-0.027,0.107
							l-0.063,0.213l-0.032,0.105l-0.035,0.104l-0.035,0.104l-0.037,0.104l-0.038,0.104l-0.039,0.102l-0.04,0.103l-0.041,0.101
							l-0.043,0.101l-0.044,0.099l-0.046,0.1l-0.047,0.099l-0.095,0.194l-0.052,0.096l-0.053,0.096l-0.051,0.095l-0.054,0.094
							l-0.056,0.094l-0.055,0.092l-0.109,0.176l-0.061,0.09l-0.059,0.089l-0.062,0.089l-0.124,0.174l-0.064,0.086l-0.067,0.084
							l-0.066,0.086l-0.067,0.082l-0.069,0.084l-0.068,0.082l-0.071,0.078l-0.071,0.082l-0.145,0.156l-0.074,0.078l-0.072,0.074
							l-0.075,0.076l-0.073,0.074l-0.076,0.074l-0.078,0.072l-0.079,0.072l-0.159,0.143l-0.082,0.07l-0.163,0.137l-0.17,0.135
							l-0.084,0.064l-0.085,0.064l-0.088,0.064l-0.087,0.061l-0.089,0.062l-0.089,0.061l-0.09,0.059l-0.091,0.059l-0.093,0.057
							l-0.091,0.057l-0.094,0.055l-0.094,0.053l-0.096,0.053l-0.094,0.051l-0.096,0.051l-0.099,0.049l-0.099,0.047l-0.098,0.047
							l-0.099,0.047l-0.198,0.084l-0.102,0.043l-0.103,0.041l-0.102,0.039l-0.103,0.037l-0.104,0.035l-0.103,0.037l-0.105,0.033
							l-0.105,0.033l-0.106,0.031l-0.104,0.029l-0.108,0.029l-0.108,0.027l-0.107,0.027l-0.107,0.023l-0.11,0.025l-0.11,0.023
							l-0.109,0.023l-0.11,0.021l-0.11,0.02l-0.111,0.02l-0.113,0.016L32.21,41.87l-0.113,0.016l-0.111,0.012l-0.116,0.012
							l-0.112,0.01l-0.115,0.008l-0.113,0.008l-0.115,0.004l-0.115,0.004l-0.116,0.002l-0.107,0.002h-2.318V41.948z M24.36,24.496
							c-0.303-0.273-0.639-0.512-0.974-0.699l-1.015-0.476c-0.717-0.262-1.471-0.399-2.233-0.423
							c-0.09-0.002-0.181-0.002-0.271-0.002c-0.762,0.016-1.518,0.143-2.238,0.396l-1.097,0.528l-0.273,0.131l-0.667,0.522
							L15.28,24.72l-0.219,0.171l-0.426,0.518c-0.56,0.595-0.981,1.315-1.266,2.091c-0.273,0.744-0.41,1.529-0.426,2.321l0.001,8.46
							c0.011,0.326,0.038,0.652,0.093,0.974l0.598,1.887c0.391,0.812,0.939,1.545,1.606,2.15c0.647,0.59,1.405,1.055,2.225,1.367
							c0.737,0.279,1.522,0.432,2.312,0.453c0.737,0.02,1.477-0.078,2.182-0.287c0.791-0.236,1.535-0.611,2.195-1.104
							c1.016-0.76,1.82-1.795,2.303-2.971l0.368-1.213l0.147-1.257v-8.552c-0.024-0.791-0.171-1.572-0.453-2.312
							c-0.282-0.743-0.691-1.434-1.227-2.003l-0.434-0.522l-0.223-0.176L24.36,24.496z M33.351,40.175l-0.02,0.006L33.351,40.175z
							 M33.435,40.147l-0.035,0.014L33.435,40.147z M33.464,40.138l0.067-0.021L33.464,40.138z M11.134,22.145
							c-0.653-0.248-1.341-0.381-2.037-0.413c-0.111-0.003-0.222-0.005-0.332-0.005c-0.7,0.015-1.392,0.132-2.052,0.364
							c-0.881,0.311-1.688,0.815-2.356,1.467c-0.687,0.669-1.22,1.491-1.551,2.392c-0.25,0.683-0.376,1.4-0.391,2.127l0.001,4.928
							c0.022,0.699,0.147,1.389,0.389,2.046c0.328,0.901,0.861,1.723,1.549,2.392c0.668,0.652,1.476,1.156,2.355,1.466
							c0.688,0.242,1.41,0.359,2.139,0.363h2.93l-0.087-1.062v-8.4c0.018-0.935,0.181-1.859,0.503-2.738
							c0.189-0.515,0.432-1.012,0.748-1.519l0.968-1.271l0.022-0.019l-0.645-0.759l-0.346-0.269l-0.662-0.517l-0.59-0.296
							L11.134,22.145z M28.228,32.335v5.872c-0.008,0.316-0.025,0.631-0.066,0.947l-0.029,0.115l3.104-0.002
							c0.109-0.004,0.22-0.01,0.328-0.016c0.664-0.057,1.316-0.205,1.933-0.457c0.863-0.354,1.645-0.895,2.279-1.577
							c0.583-0.626,1.04-1.367,1.335-2.17c0.251-0.683,0.376-1.401,0.391-2.127v-1.756l-0.002-1.251l-0.001-1.922
							c-0.023-0.726-0.157-1.44-0.415-2.119c-0.322-0.848-0.824-1.623-1.465-2.263c-0.642-0.642-1.417-1.146-2.264-1.467
							c-0.654-0.248-1.34-0.382-2.037-0.413c-0.109-0.004-0.22-0.005-0.331-0.005c-0.699,0.015-1.391,0.131-2.052,0.364
							l-0.707,0.346l-0.614,0.301l-0.638,0.519l-0.506,0.411l-0.5,0.638l1.035,1.293c0.293,0.464,0.533,0.957,0.72,1.472
							c0.321,0.878,0.483,1.802,0.503,2.737v0.108V32.335z M37.498,19.8c-0.021-0.698-0.147-1.389-0.388-2.043
							c-0.322-0.875-0.836-1.676-1.496-2.335c-0.641-0.64-1.416-1.143-2.264-1.464c-0.652-0.248-1.338-0.382-2.033-0.413
							c-0.111-0.003-0.221-0.005-0.331-0.005c-0.726,0.016-1.445,0.141-2.128,0.393l-0.795,0.391l-0.422,0.209l-0.732,0.579
							l-0.333,0.262c-0.704,0.688-1.247,1.534-1.575,2.462c-0.241,0.686-0.36,1.403-0.365,2.13v3.191l0.414,0.291l0.656-0.786
							l1.272-1.002l1.452-0.716c0.783-0.288,1.608-0.438,2.442-0.464c0.099-0.002,0.196-0.003,0.297-0.002
							c0.866,0.017,1.726,0.168,2.542,0.465c1.133,0.414,2.162,1.1,2.984,1.981l0.806,1.061L37.498,19.8z M11.131,13.958
							c-0.652-0.248-1.338-0.383-2.034-0.414c-0.111-0.004-0.222-0.005-0.331-0.005c-0.728,0.015-1.445,0.14-2.129,0.39
							c-0.925,0.338-1.766,0.893-2.443,1.604c-0.626,0.657-1.111,1.444-1.413,2.301c-0.242,0.688-0.359,1.41-0.364,2.139v4.009
							l0.81-1.056c0.822-0.883,1.852-1.568,2.983-1.982c0.783-0.288,1.608-0.438,2.441-0.465c0.1-0.001,0.198-0.002,0.298-0.001
							c0.868,0.017,1.726,0.168,2.542,0.465l1.451,0.77c0.734,0.412,1.367,0.977,1.895,1.63l0.062,0.095l0.381-0.325v-3.303
							c-0.023-0.725-0.158-1.44-0.417-2.119c-0.323-0.848-0.827-1.622-1.468-2.263l-0.387-0.313l-0.668-0.54l-0.494-0.252
							L11.131,13.958z M26.519,13.385c-0.361-0.949-0.934-1.817-1.66-2.527c-0.708-0.689-1.561-1.229-2.49-1.569
							c-0.715-0.264-1.467-0.4-2.229-0.424c-0.091-0.002-0.181-0.002-0.271-0.002c-0.792,0.017-1.576,0.153-2.32,0.425
							c-0.981,0.36-1.879,0.941-2.608,1.688c-0.711,0.728-1.261,1.609-1.599,2.569l-0.049,0.193l1.242,1.067
							c0.688,0.756,1.224,1.649,1.564,2.612c0.289,0.82,0.43,1.682,0.436,2.55v2.469l0.492-0.255
							c0.838-0.318,1.721-0.492,2.615-0.531c0.143-0.004,0.283-0.007,0.425-0.006c0.935,0.018,1.858,0.18,2.736,0.501l0.586,0.271
							l0.002-2.651c0.027-0.863,0.188-1.717,0.496-2.525c0.43-1.126,1.127-2.144,2.02-2.953l0.72-0.537L26.519,13.385z"/>
					</defs>
					<clipPath id="SVGID_12_">
						<use xlink:href="#SVGID_11_"  overflow="visible"/>
					</clipPath>
					<g clip-path="url(#SVGID_12_)">
						<defs>
							<rect id="SVGID_13_" x="2.02" y="1.99" width="36" height="36"/>
						</defs>
						<clipPath id="SVGID_14_">
							<use xlink:href="#SVGID_13_"  overflow="visible"/>
						</clipPath>
						<rect x="-5.097" y="1.343" clip-path="url(#SVGID_14_)" fill="#FFFFFF" width="50.121" height="51.459"/>
					</g>
				</g>
			</g>
		</g>
	</g>
</g>
<g>
	<defs>
		<path id="SVGID_15_" d="M2.02,19.99c0-9.941,8.057-18,18-18c9.942,0,18,8.057,18,18c0,9.941-8.057,18-18,18
			C10.079,37.99,2.02,29.934,2.02,19.99z M-8.98-9.01h58v57.999h-58V-9.01z"/>
	</defs>
	<clipPath id="SVGID_16_">
		<use xlink:href="#SVGID_15_"  overflow="visible"/>
	</clipPath>
	<g clip-path="url(#SVGID_16_)">
		<defs>
			<rect id="SVGID_17_" x="-873.98" y="-369.01" width="1440" height="899.999"/>
		</defs>
		<clipPath id="SVGID_18_">
			<use xlink:href="#SVGID_17_"  overflow="visible"/>
		</clipPath>
		
			<circle clip-path="url(#SVGID_18_)" fill="none" stroke="#FFFFFF" stroke-width="3.2" stroke-miterlimit="10" cx="20.02" cy="19.99" r="18"/>
	</g>
</g>
<g>
	<circle fill="none" stroke="#FFFFFF" stroke-width="0.8" stroke-miterlimit="10" cx="20.02" cy="19.99" r="18"/>
</g>
</svg>
