<?xml version="1.0" encoding="utf-8"?>
<!-- Generator: Adobe Illustrator 16.0.0, SVG Export Plug-In . SVG Version: 6.00 Build 0)  -->
<!DOCTYPE svg PUBLIC "-//W3C//DTD SVG 1.1//EN" "http://www.w3.org/Graphics/SVG/1.1/DTD/svg11.dtd">
<svg version="1.1" id="Layer_1" xmlns="http://www.w3.org/2000/svg" xmlns:xlink="http://www.w3.org/1999/xlink" x="0px" y="0px"
	 width="40px" height="40px" viewBox="0 0 40 40" enable-background="new 0 0 40 40" xml:space="preserve">
<path fill-rule="evenodd" clip-rule="evenodd" d="M25.758,8.572c-0.309-0.812-0.798-1.554-1.42-2.161
	c-0.605-0.59-1.334-1.051-2.129-1.342c-0.611-0.225-1.254-0.342-1.905-0.362c-0.078-0.002-0.155-0.002-0.232-0.002
	c-0.678,0.014-1.348,0.131-1.985,0.363c-0.839,0.308-1.606,0.805-2.23,1.443c-0.608,0.622-1.078,1.376-1.367,2.197l-0.042,0.165
	l1.063,0.913c0.588,0.646,1.046,1.41,1.337,2.234c0.248,0.701,0.368,1.438,0.373,2.18v2.111l0.42-0.218
	c0.717-0.272,1.472-0.421,2.237-0.454c0.121-0.004,0.242-0.006,0.363-0.005c0.799,0.015,1.588,0.153,2.339,0.428l0.501,0.232
	l0.001-2.267c0.024-0.738,0.161-1.468,0.425-2.159c0.367-0.963,0.963-1.833,1.726-2.525l0.616-0.46L25.758,8.572z M12.601,9.062
	c-0.558-0.212-1.144-0.327-1.739-0.354c-0.095-0.003-0.189-0.004-0.283-0.004c-0.622,0.012-1.236,0.119-1.82,0.333
	c-0.791,0.289-1.51,0.763-2.09,1.371c-0.535,0.562-0.95,1.235-1.208,1.967c-0.207,0.589-0.307,1.206-0.311,1.829v3.428l0.692-0.903
	c0.703-0.755,1.583-1.341,2.551-1.695c0.67-0.246,1.375-0.375,2.088-0.397c0.085-0.001,0.169-0.002,0.254-0.001
	c0.742,0.014,1.476,0.143,2.174,0.397l1.241,0.658c0.627,0.353,1.169,0.835,1.619,1.394l0.054,0.081l0.325-0.278l0-2.824
	c-0.02-0.62-0.135-1.232-0.356-1.812c-0.276-0.725-0.707-1.387-1.255-1.935l-0.331-0.268l-0.571-0.462l-0.423-0.215L12.601,9.062z
	 M35.146,14.057c-0.018-0.597-0.126-1.187-0.332-1.747c-0.275-0.748-0.715-1.433-1.279-1.996c-0.548-0.547-1.211-0.977-1.935-1.252
	c-0.558-0.212-1.144-0.326-1.739-0.353c-0.095-0.003-0.189-0.004-0.283-0.004c-0.621,0.013-1.236,0.12-1.82,0.335l-0.679,0.334
	l-0.361,0.179l-0.626,0.495l-0.285,0.224c-0.602,0.588-1.066,1.312-1.347,2.105c-0.206,0.586-0.308,1.2-0.312,1.821v2.729
	l0.354,0.249l0.561-0.672l1.088-0.857l1.242-0.612c0.67-0.246,1.375-0.375,2.088-0.397c0.084-0.001,0.168-0.002,0.254-0.001
	c0.741,0.014,1.475,0.143,2.173,0.397c0.969,0.354,1.849,0.94,2.552,1.694l0.689,0.907L35.146,14.057z M13.08,24.775L13.08,24.775
	L13.08,24.775z M27.219,24.775v5.021c-0.006,0.271-0.022,0.54-0.057,0.809l-0.025,0.099l2.654-0.001
	c0.094-0.003,0.188-0.008,0.28-0.014c0.568-0.048,1.126-0.175,1.653-0.391c0.738-0.302,1.406-0.765,1.949-1.348
	c0.498-0.535,0.889-1.169,1.141-1.855c0.215-0.584,0.322-1.198,0.334-1.819v-1.501l-0.001-1.07l-0.001-1.643
	c-0.02-0.62-0.135-1.232-0.355-1.812c-0.275-0.725-0.705-1.388-1.253-1.935c-0.548-0.548-1.211-0.979-1.935-1.254
	c-0.559-0.212-1.146-0.326-1.742-0.353c-0.094-0.003-0.188-0.004-0.283-0.004c-0.598,0.012-1.189,0.112-1.754,0.311l-0.605,0.296
	l-0.525,0.257l-0.545,0.443l-0.433,0.352l-0.428,0.545l0.886,1.106c0.25,0.396,0.455,0.818,0.615,1.258
	c0.275,0.751,0.414,1.541,0.43,2.341v0.092l0,0V24.775L27.219,24.775z M12.604,16.062c-0.559-0.212-1.146-0.326-1.742-0.353
	c-0.095-0.003-0.189-0.004-0.284-0.004c-0.598,0.012-1.19,0.112-1.754,0.311c-0.753,0.266-1.444,0.697-2.015,1.254
	c-0.587,0.572-1.043,1.275-1.326,2.045c-0.214,0.584-0.322,1.198-0.334,1.819l0.001,4.213c0.019,0.598,0.126,1.188,0.332,1.75
	c0.281,0.77,0.737,1.473,1.324,2.045c0.571,0.557,1.262,0.988,2.015,1.253c0.588,0.207,1.205,0.307,1.828,0.311h2.505l-0.074-0.908
	v-5.021h0v-1.07h0v-1.092c0.015-0.799,0.154-1.59,0.43-2.341c0.162-0.44,0.369-0.865,0.64-1.299l0.827-1.086l0.019-0.016
	l-0.551-0.649l-0.295-0.229l-0.567-0.442L13.079,16.3L12.604,16.062z M31.697,31.448l0.057-0.019L31.697,31.448z M31.672,31.456
	l-0.031,0.011L31.672,31.456z M31.6,31.479l-0.017,0.005L31.6,31.479z M23.913,18.073c-0.26-0.234-0.547-0.438-0.833-0.598
	l-0.868-0.407c-0.612-0.224-1.257-0.341-1.908-0.361c-0.077-0.002-0.155-0.002-0.232-0.002c-0.652,0.013-1.298,0.122-1.914,0.339
	l-0.938,0.452l-0.234,0.112l-0.57,0.446l-0.267,0.21l-0.188,0.146l-0.363,0.443c-0.479,0.508-0.84,1.124-1.083,1.787
	c-0.233,0.637-0.351,1.308-0.364,1.985l0.001,7.234c0.009,0.279,0.033,0.558,0.079,0.834l0.511,1.613
	c0.334,0.694,0.804,1.321,1.374,1.839c0.554,0.504,1.202,0.902,1.902,1.168c0.631,0.24,1.302,0.37,1.977,0.388
	c0.63,0.016,1.262-0.066,1.865-0.246c0.676-0.201,1.312-0.522,1.877-0.943c0.869-0.65,1.557-1.535,1.969-2.54l0.315-1.037
	l0.126-1.076v-7.312c-0.021-0.677-0.146-1.345-0.387-1.978c-0.242-0.635-0.592-1.225-1.049-1.712L24.34,18.41l-0.191-0.15
	L23.913,18.073z M27.671,32.996l-0.045,0.104l-0.073,0.163l-0.076,0.16l-0.08,0.158l-0.082,0.157l-0.088,0.153l-0.088,0.152
	l-0.095,0.149l-0.096,0.147l-0.099,0.146l-0.103,0.143l-0.104,0.143l-0.106,0.139l-0.111,0.136l-0.112,0.134l-0.117,0.132
	l-0.118,0.129l-0.122,0.126l-0.124,0.123l-0.127,0.12l-0.13,0.117l-0.131,0.115l-0.135,0.113l-0.139,0.108l-0.141,0.106
	l-0.141,0.104l-0.145,0.102l-0.146,0.098L24.45,36.77l-0.15,0.093l-0.153,0.088l-0.154,0.085l-0.157,0.082l-0.159,0.079l-0.16,0.075
	l-0.164,0.07l-0.164,0.068l-0.166,0.063l-0.17,0.062l-0.17,0.058l-0.172,0.055l-0.173,0.051l-0.175,0.047l-0.17,0.041l-0.096,0.021
	l-0.088,0.02l-0.091,0.019l-0.09,0.018l-0.18,0.031l-0.091,0.015l-0.183,0.025l-0.092,0.012l-0.092,0.01l-0.092,0.009l-0.093,0.008
	l-0.093,0.008l-0.093,0.006l-0.093,0.005l-0.094,0.004l-0.093,0.003L20.152,38l-0.188-0.002l-0.094-0.003l-0.093-0.004l-0.093-0.005
	l-0.093-0.006l-0.093-0.008l-0.092-0.008l-0.092-0.009l-0.092-0.01l-0.092-0.012l-0.182-0.025l-0.091-0.015l-0.09-0.015l-0.18-0.034
	l-0.09-0.019l-0.089-0.02l-0.095-0.021l-0.171-0.041L17.967,37.7l-0.173-0.051l-0.172-0.055l-0.17-0.058l-0.168-0.062l-0.167-0.063
	l-0.165-0.068l-0.163-0.07l-0.161-0.075l-0.159-0.079l-0.157-0.082l-0.155-0.085l-0.153-0.088l-0.151-0.092l-0.149-0.096
	l-0.146-0.098l-0.145-0.102l-0.142-0.104l-0.14-0.106l-0.137-0.109l-0.135-0.112l-0.132-0.115l-0.13-0.118l-0.127-0.119
	l-0.124-0.124l-0.122-0.126l-0.119-0.128l-0.116-0.133l-0.113-0.134l-0.111-0.136l-0.107-0.139l-0.105-0.142l-0.102-0.144
	l-0.099-0.146l-0.096-0.147l-0.092-0.15l-0.09-0.152l-0.086-0.153l-0.083-0.156l-0.08-0.158l-0.077-0.161l-0.073-0.162l-0.044-0.104
	h-1.988l-0.092-0.001l-0.098-0.002l-0.098-0.003l-0.098-0.004L10.16,32.98l-0.097-0.008l-0.097-0.008L9.87,32.956l-0.096-0.011
	l-0.096-0.013L9.583,32.92l-0.095-0.014l-0.19-0.032l-0.094-0.018l-0.094-0.02l-0.093-0.02l-0.093-0.021l-0.092-0.021l-0.184-0.047
	l-0.091-0.024l-0.091-0.026l-0.09-0.026l-0.09-0.029l-0.089-0.029l-0.089-0.029l-0.176-0.064l-0.174-0.068l-0.086-0.036
	l-0.086-0.036L7.501,32.32l-0.084-0.038l-0.084-0.04L7.25,32.201l-0.083-0.042l-0.082-0.042l-0.082-0.044l-0.081-0.045l-0.081-0.046
	l-0.08-0.047L6.603,31.84l-0.156-0.1l-0.076-0.051l-0.076-0.054L6.22,31.583l-0.075-0.054l-0.074-0.056l-0.073-0.055l-0.073-0.057
	l-0.072-0.059l-0.071-0.058l-0.071-0.06l-0.069-0.06l-0.069-0.061l-0.068-0.062L5.371,30.88l-0.066-0.063L5.24,30.752l-0.064-0.063
	l-0.064-0.066L5.05,30.556l-0.062-0.066l-0.062-0.068l-0.061-0.069l-0.06-0.068l-0.059-0.07l-0.058-0.071l-0.057-0.07l-0.056-0.073
	l-0.056-0.072l-0.055-0.074L4.41,29.777l-0.053-0.075l-0.052-0.075L4.254,29.55l-0.05-0.077l-0.049-0.078l-0.048-0.077L4.06,29.238
	l-0.092-0.16l-0.044-0.081L3.88,28.915l-0.042-0.082L3.796,28.75l-0.041-0.084l-0.04-0.084l-0.039-0.084l-0.038-0.085l-0.037-0.086
	L3.565,28.24L3.53,28.154l-0.034-0.088l-0.033-0.089L3.431,27.89L3.4,27.801l-0.058-0.18l-0.027-0.09L3.289,27.44l-0.025-0.092
	L3.24,27.257l-0.023-0.093l-0.021-0.092l-0.021-0.095l-0.02-0.093l-0.018-0.094l-0.018-0.095l-0.017-0.095l-0.015-0.095
	l-0.014-0.096L3.06,26.315l-0.012-0.097l-0.01-0.097l-0.009-0.096l-0.008-0.099l-0.007-0.097l-0.005-0.098l-0.004-0.099
	l-0.003-0.098l-0.001-0.098L3,25.347V14.333l0.001-0.091l0.001-0.1l0.003-0.098l0.004-0.098l0.005-0.099l0.007-0.097l0.008-0.097
	l0.009-0.098l0.01-0.097l0.012-0.096l0.013-0.097l0.014-0.095l0.015-0.095l0.017-0.095l0.018-0.095l0.018-0.095l0.02-0.093
	l0.042-0.187l0.023-0.092l0.024-0.092l0.025-0.092l0.026-0.09l0.027-0.092l0.029-0.09L3.4,11.88l0.031-0.089l0.032-0.089
	l0.033-0.088l0.034-0.087l0.035-0.087l0.036-0.087l0.037-0.086l0.038-0.085l0.039-0.085l0.04-0.084l0.041-0.083l0.084-0.166
	l0.088-0.162l0.046-0.08l0.046-0.079l0.047-0.079l0.048-0.079l0.049-0.078l0.05-0.077l0.051-0.076l0.052-0.076L4.41,9.903
	l0.054-0.074l0.055-0.074l0.056-0.073L4.631,9.61l0.057-0.072l0.058-0.071l0.059-0.069l0.06-0.069l0.061-0.069l0.062-0.066
	L5.05,9.124l0.062-0.066l0.128-0.13l0.065-0.063l0.066-0.063l0.067-0.062l0.067-0.062l0.068-0.062l0.069-0.062l0.069-0.06
	l0.071-0.06l0.071-0.058l0.072-0.058l0.146-0.112l0.074-0.055L6.22,8.097l0.075-0.053l0.076-0.052l0.076-0.051L6.525,7.89
	l0.078-0.049l0.079-0.049l0.079-0.047l0.08-0.047l0.081-0.046l0.081-0.044l0.082-0.044l0.082-0.043L7.25,7.479l0.083-0.039
	l0.084-0.04L7.501,7.36l0.085-0.038L7.758,7.25l0.087-0.035l0.087-0.033L8.02,7.149l0.176-0.062l0.089-0.029l0.09-0.027l0.09-0.027
	l0.091-0.026l0.091-0.024l0.092-0.024l0.092-0.022l0.092-0.021l0.186-0.042l0.188-0.036l0.094-0.017l0.19-0.03l0.095-0.013
	l0.096-0.012l0.192-0.021l0.097-0.008l0.097-0.007l0.097-0.005l0.098-0.005l0.098-0.004l0.098-0.002h0.104l0.168,0.001l0.173,0.007
	l0.172,0.01l0.171,0.014l0.17,0.019l0.169,0.021l0.168,0.025l0.167,0.027l0.166,0.031l0.165,0.036l0.164,0.039l0.162,0.042
	l0.161,0.046l0.048,0.016l0.043-0.085l0.043-0.082l0.044-0.081l0.045-0.08l0.046-0.08l0.047-0.08l0.048-0.079l0.049-0.078
	l0.05-0.078l0.05-0.077l0.051-0.077l0.052-0.075l0.053-0.075l0.108-0.148l0.112-0.146l0.057-0.072l0.058-0.071l0.059-0.069
	l0.06-0.07l0.06-0.069l0.061-0.068l0.124-0.135l0.063-0.066l0.128-0.13l0.065-0.064l0.066-0.062l0.067-0.063l0.067-0.062
	l0.068-0.062l0.069-0.062l0.069-0.061l0.07-0.06L15,4.388l0.144-0.115l0.073-0.057l0.074-0.056l0.074-0.054l0.075-0.055l0.152-0.105
	l0.077-0.052l0.077-0.05l0.078-0.05l0.079-0.049l0.079-0.048l0.08-0.047l0.08-0.046l0.081-0.046l0.164-0.088l0.166-0.084l0.083-0.04
	l0.084-0.04l0.17-0.075l0.085-0.037l0.086-0.036l0.174-0.068l0.088-0.033l0.088-0.031l0.088-0.031l0.089-0.029l0.09-0.029
	l0.09-0.027l0.182-0.052l0.092-0.025l0.092-0.023l0.184-0.044l0.093-0.021l0.093-0.021l0.094-0.019l0.094-0.019l0.095-0.017
	l0.095-0.016l0.19-0.028l0.096-0.012l0.096-0.012l0.096-0.01l0.097-0.009l0.097-0.008l0.097-0.007l0.098-0.005l0.098-0.005
	l0.098-0.003l0.098-0.002l0.099-0.001l0.106,0.001l0.099,0.002l0.098,0.003l0.098,0.005l0.098,0.005l0.097,0.007l0.194,0.016
	l0.097,0.01l0.191,0.024l0.096,0.013l0.096,0.016l0.189,0.031l0.096,0.019l0.094,0.019l0.094,0.021l0.092,0.021l0.094,0.021
	l0.093,0.021l0.185,0.049l0.09,0.025l0.092,0.027l0.09,0.026l0.09,0.029l0.09,0.03l0.088,0.03l0.09,0.031l0.088,0.033l0.086,0.034
	l0.088,0.034l0.087,0.036l0.086,0.037l0.17,0.075l0.168,0.08l0.084,0.042l0.082,0.042l0.164,0.088l0.08,0.045l0.079,0.047
	l0.08,0.047l0.08,0.048l0.156,0.098l0.154,0.103l0.076,0.052l0.15,0.108l0.073,0.054l0.146,0.112l0.072,0.057l0.071,0.058
	l0.071,0.06l0.07,0.06l0.068,0.061l0.069,0.062l0.134,0.124l0.132,0.126l0.065,0.064l0.064,0.064l0.063,0.065L26.1,5.138
	l0.062,0.067l0.062,0.067l0.121,0.138l0.061,0.07l0.059,0.069l0.059,0.072l0.057,0.071l0.057,0.072l0.055,0.073l0.056,0.074
	L26.8,5.988l0.054,0.075l0.053,0.075l0.051,0.076l0.051,0.078l0.049,0.077l0.049,0.079l0.049,0.079l0.047,0.079l0.092,0.161
	l0.044,0.081l0.043,0.082l0.043,0.083l0.001,0.001l0.047-0.014l0.159-0.047l0.162-0.042l0.164-0.039l0.164-0.036l0.166-0.031
	l0.168-0.027l0.168-0.025l0.17-0.021l0.17-0.019l0.172-0.014l0.173-0.01l0.174-0.007l0.168-0.001h0.104l0.098,0.002l0.099,0.004
	l0.196,0.01l0.098,0.007l0.096,0.008l0.098,0.01l0.097,0.012l0.096,0.011l0.097,0.013l0.094,0.016l0.096,0.015l0.094,0.017
	l0.094,0.019l0.094,0.019l0.095,0.021l0.187,0.042l0.092,0.022l0.092,0.024l0.09,0.024l0.092,0.026l0.09,0.027l0.09,0.027
	l0.09,0.029L32.2,7.118l0.088,0.031l0.088,0.031l0.088,0.034l0.173,0.07l0.086,0.037l0.17,0.076l0.084,0.04l0.082,0.04l0.084,0.043
	l0.082,0.042l0.082,0.044l0.08,0.045l0.08,0.045l0.079,0.047l0.08,0.047l0.156,0.098l0.075,0.051l0.078,0.052l0.076,0.052
	l0.074,0.053l0.148,0.108l0.072,0.056l0.072,0.058l0.071,0.057l0.071,0.058l0.07,0.06l0.069,0.06l0.069,0.062l0.067,0.062
	l0.065,0.062l0.068,0.062l0.064,0.063l0.064,0.063l0.064,0.065l0.062,0.064l0.062,0.066l0.062,0.067l0.062,0.067l0.062,0.069
	l0.06,0.068l0.06,0.07l0.059,0.071l0.057,0.071l0.057,0.071l0.056,0.073l0.11,0.148l0.053,0.074l0.104,0.152l0.1,0.154l0.097,0.158
	l0.047,0.078l0.09,0.162l0.044,0.081l0.043,0.082l0.043,0.083l0.04,0.083l0.039,0.084l0.078,0.17l0.072,0.172l0.034,0.088
	l0.033,0.087l0.033,0.088l0.031,0.088l0.031,0.089l0.058,0.18l0.026,0.09l0.027,0.092l0.024,0.091l0.024,0.092l0.022,0.092
	l0.042,0.187l0.02,0.094l0.02,0.094l0.018,0.094l0.018,0.096l0.029,0.189l0.024,0.192l0.011,0.097l0.01,0.098l0.016,0.193
	l0.01,0.196l0.004,0.098l0.002,0.099v0.092v11.021v0.093l-0.002,0.098l-0.004,0.098l-0.01,0.196l-0.008,0.098l-0.008,0.098
	l-0.01,0.097l-0.011,0.096l-0.024,0.192l-0.015,0.096l-0.015,0.095l-0.018,0.096l-0.018,0.094l-0.02,0.094l-0.02,0.094l-0.042,0.187
	l-0.022,0.092l-0.024,0.092l-0.024,0.092l-0.054,0.182l-0.028,0.09l-0.029,0.089l-0.03,0.089l-0.032,0.089l-0.033,0.089
	l-0.033,0.087l-0.034,0.087l-0.035,0.086l-0.037,0.086l-0.038,0.085l-0.039,0.085l-0.04,0.084l-0.081,0.166l-0.044,0.082
	l-0.045,0.082l-0.044,0.081l-0.046,0.08l-0.047,0.08l-0.047,0.079L36.1,29.473l-0.051,0.077l-0.051,0.076l-0.053,0.076l-0.106,0.149
	l-0.055,0.073l-0.058,0.073l-0.056,0.072l-0.058,0.071l-0.059,0.071l-0.059,0.07l-0.061,0.068l-0.061,0.069l-0.124,0.134
	l-0.063,0.067l-0.062,0.064l-0.064,0.065l-0.063,0.064l-0.065,0.062l-0.066,0.062l-0.068,0.062l-0.136,0.122l-0.07,0.06l-0.14,0.118
	l-0.145,0.114l-0.072,0.056l-0.073,0.055l-0.075,0.054l-0.074,0.053l-0.076,0.053l-0.076,0.052l-0.077,0.05l-0.078,0.05
	l-0.079,0.048l-0.078,0.048l-0.08,0.048l-0.08,0.045l-0.082,0.045l-0.08,0.044l-0.082,0.043l-0.084,0.041l-0.084,0.041l-0.084,0.04
	l-0.084,0.039l-0.17,0.073l-0.087,0.036l-0.087,0.035l-0.087,0.033l-0.088,0.033l-0.089,0.03l-0.088,0.031l-0.09,0.029l-0.09,0.028
	l-0.091,0.026l-0.09,0.026l-0.092,0.024l-0.093,0.024l-0.092,0.023l-0.092,0.021l-0.094,0.021l-0.094,0.021l-0.094,0.02
	l-0.094,0.017l-0.095,0.017l-0.095,0.017l-0.096,0.014l-0.096,0.013l-0.096,0.013l-0.096,0.01l-0.099,0.01l-0.096,0.008
	l-0.099,0.008l-0.097,0.006l-0.098,0.004l-0.099,0.003l-0.099,0.002l-0.092,0.001H27.671z"/>
</svg>
