<?xml version="1.0" encoding="utf-8"?>
<!-- Generator: Adobe Illustrator 16.0.0, SVG Export Plug-In . SVG Version: 6.00 Build 0)  -->
<!DOCTYPE svg PUBLIC "-//W3C//DTD SVG 1.1//EN" "http://www.w3.org/Graphics/SVG/1.1/DTD/svg11.dtd">
<svg version="1.1" id="Layer_1" xmlns="http://www.w3.org/2000/svg" xmlns:xlink="http://www.w3.org/1999/xlink" x="0px" y="0px"
	 width="36px" height="36px" viewBox="0 0 36 36" enable-background="new 0 0 36 36" xml:space="preserve">
<path fill-rule="evenodd" clip-rule="evenodd" fill="#2F393C" d="M22.823,6.006C20.884,0.9,13.371,0.984,11.555,6.143l-0.042,0.165
	c1.649,1.416,2.757,3.043,2.773,5.327v2.111c1.55-0.913,3.719-0.849,5.359-0.249l0.5,0.232c0.002-2.594,0.064-5.056,2.152-6.951
	C22.565,6.578,23.081,6.398,22.823,6.006z M9.667,6.497C6.107,5.144,2.24,7.858,2.216,11.639v3.428
	c1.855-2.42,4.733-3.705,7.759-2.6c1.069,0.567,2.081,1.084,2.86,2.052l0.054,0.081l0.325-0.278c0-2.358,0.219-4.743-1.612-6.571
	c-0.3-0.243-0.601-0.486-0.901-0.729C10.356,6.846,10.012,6.671,9.667,6.497z M32.212,11.491c-0.107-3.686-3.904-6.298-7.389-5.017
	c-0.346,0.171-0.693,0.341-1.039,0.513c-1.51,1.193-2.557,2.618-2.57,4.646v2.729l0.354,0.249l0.561-0.672l1.088-0.857
	c1.094-0.539,2.074-0.97,3.33-1.01c1.881-0.022,3.691,0.71,4.979,2.091c0.23,0.302,0.461,0.605,0.689,0.907
	C32.214,13.876,32.214,12.684,32.212,11.491z M10.146,22.21L10.146,22.21L10.146,22.21z M24.284,22.21
	c0,1.916,0.186,3.926-0.057,5.83l-0.025,0.098c1.182,0,2.445,0.125,3.611-0.109c2.514-0.51,4.354-2.762,4.4-5.318
	c0-1.369,0-2.738-0.002-4.109c-0.002-3.72-3.83-6.378-7.322-5.151c-0.377,0.184-0.754,0.369-1.131,0.553
	c-0.326,0.265-0.65,0.53-0.977,0.795l-0.428,0.545c1.133,1.415,1.893,2.822,1.93,4.706v0.092l0,0
	C24.284,20.829,24.284,21.519,24.284,22.21z M9.67,13.496c-3.532-1.34-7.383,1.322-7.454,5.072c0,1.369,0.001,2.74,0.001,4.109
	c0.001,3,2.526,5.443,5.498,5.463h2.505l-0.074-0.908V22.21h0v-1.07h0c0-1.686,0.148-3.258,1.069-4.732l0.827-1.086l0.019-0.016
	l-0.551-0.649c-0.288-0.224-0.575-0.448-0.862-0.672C10.322,13.822,9.996,13.659,9.67,13.496z M28.763,28.882l0.057-0.018
	L28.763,28.882z M28.737,28.89l-0.031,0.012L28.737,28.89z M28.665,28.913l-0.016,0.006L28.665,28.913z M20.979,15.507
	c-0.26-0.234-0.547-0.438-0.834-0.598c-1.582-0.743-3.218-1.031-4.921-0.432c-0.391,0.188-0.781,0.377-1.173,0.564
	c-0.342,0.268-0.682,0.537-1.025,0.803c-1.04,1.271-1.777,2.513-1.811,4.216c0,1.305,0,2.607,0.001,3.912
	c0,1.355-0.144,2.811,0.08,4.156c0.657,2.076,1.601,3.791,3.787,4.619c3.003,1.143,6.47-0.375,7.687-3.342l0.316-1.037l0.125-1.076
	c0-1.578,0-3.158,0-4.738c0-2.197,0.205-4.512-1.436-6.262l-0.371-0.449C21.263,15.732,21.12,15.62,20.979,15.507z M24.737,30.431
	c-2.121,5.035-8.672,6.568-12.812,3.049c-0.966-0.822-1.74-1.879-2.228-3.049c-2.248,0-4.383,0.016-6.298-1.334
	c-1.318-0.93-2.336-2.207-2.886-3.729c-0.282-0.779-0.438-1.617-0.446-2.445c-0.022-2.246-0.001-4.493-0.001-6.737
	c0-2.434-0.372-5.177,0.638-7.484c1.53-3.495,5.575-5.385,9.239-4.251c1.669-3.348,5.58-5.097,9.192-4.23
	c2.293,0.549,4.287,2.125,5.354,4.229V4.45c3.826-1.171,7.994,0.91,9.402,4.637c0.336,0.89,0.482,1.84,0.482,2.789
	c0,2.663,0,5.326,0,7.989c0,2.293,0.193,4.578-0.971,6.648c-0.732,1.305-1.887,2.441-3.236,3.1
	C28.407,30.472,26.661,30.431,24.737,30.431z"/>
</svg>
