<?xml version="1.0" encoding="utf-8"?>
<!-- Generator: Adobe Illustrator 16.0.0, SVG Export Plug-In . SVG Version: 6.00 Build 0)  -->
<!DOCTYPE svg PUBLIC "-//W3C//DTD SVG 1.1//EN" "http://www.w3.org/Graphics/SVG/1.1/DTD/svg11.dtd">
<svg version="1.1" id="Layer_1" xmlns="http://www.w3.org/2000/svg" xmlns:xlink="http://www.w3.org/1999/xlink" x="0px" y="0px"
	 width="112px" height="37px" viewBox="0 0 112 37" enable-background="new 0 0 112 37" xml:space="preserve">
<title>squadd</title>
<desc>Created with Sketch.</desc>
<g id="Page-1">
	<g id="Desktop-HD" transform="translate(-1051.000000, -320.000000)">
		<g id="Final_x3F_-Curved-q" transform="translate(1052.000000, 320.000000)">
			<path id="squadd" fill="#FFFFFF" stroke="#FFFFFF" stroke-width="0.25" d="M10.836,15.322c-0.36-0.704-0.906-1.28-1.638-1.729
				c-0.732-0.449-1.566-0.673-2.502-0.673c-0.432,0-0.864,0.048-1.296,0.146s-0.816,0.255-1.152,0.473s-0.606,0.498-0.81,0.837
				s-0.306,0.74-0.306,1.201c0,0.801,0.324,1.414,0.972,1.838s1.668,0.783,3.06,1.074c1.992,0.413,3.462,1.013,4.41,1.802
				c0.948,0.789,1.422,1.85,1.422,3.186c0,0.971-0.186,1.789-0.558,2.457c-0.372,0.667-0.858,1.213-1.458,1.638
				s-1.278,0.728-2.034,0.91c-0.756,0.183-1.518,0.272-2.286,0.272c-1.272,0-2.508-0.267-3.708-0.801
				C1.752,27.42,0.768,26.582,0,25.441l1.944-1.455c0.432,0.752,1.068,1.383,1.908,1.893s1.764,0.764,2.772,0.764
				c0.528,0,1.032-0.048,1.512-0.145c0.48-0.098,0.9-0.268,1.26-0.51c0.36-0.243,0.648-0.553,0.864-0.929
				c0.216-0.376,0.324-0.843,0.324-1.401c0-0.898-0.426-1.572-1.278-2.021c-0.852-0.449-2.082-0.868-3.69-1.256
				c-0.504-0.122-1.038-0.272-1.602-0.455s-1.086-0.448-1.566-0.801c-0.48-0.352-0.876-0.795-1.188-1.329
				c-0.312-0.534-0.468-1.202-0.468-2.002c0-0.874,0.168-1.62,0.504-2.239c0.336-0.619,0.786-1.128,1.35-1.529
				s1.206-0.698,1.926-0.892c0.72-0.194,1.464-0.292,2.232-0.292c1.176,0,2.316,0.267,3.42,0.801
				c1.104,0.534,1.932,1.287,2.484,2.257L10.836,15.322z M27.288,27.91c-1.164,0.564-2.346,0.846-3.546,0.846
				c-1.32,0-2.514-0.228-3.582-0.684c-1.068-0.456-1.98-1.08-2.736-1.872c-0.756-0.792-1.344-1.728-1.764-2.808
				s-0.63-2.244-0.63-3.492s0.21-2.412,0.63-3.492s1.008-2.016,1.764-2.808c0.756-0.792,1.668-1.416,2.736-1.872
				c1.068-0.456,2.262-0.684,3.582-0.684c1.2,0,2.382,0.282,3.546,0.846s2.094,1.398,2.79,2.502h0.108v-2.916h2.448
				c0,0,0,11.732-0.004,18.561c0,0.079,0,0.632,0,1.109c-0.145,1.814,1.18,3.646,1.18,3.646s-0.571,0.354-1.71,1.188
				c-0.219,0-1.913-1.311-1.913-4.834c0-0.929,0.012-0.967,0-2.109c-0.065-6.476,0-3.557,0-3.557S28.452,27.346,27.288,27.91z
				 M17.62,19.9c0,0.936,0.144,1.818,0.432,2.646c0.288,0.828,0.702,1.547,1.242,2.16c0.54,0.611,1.206,1.092,1.998,1.439
				s1.692,0.521,2.7,0.521c0.936,0,1.8-0.174,2.592-0.521s1.476-0.822,2.052-1.422c0.576-0.6,1.026-1.314,1.35-2.143
				c0.324-0.828,0.486-1.722,0.486-2.682s-0.162-1.854-0.486-2.682c-0.324-0.828-0.774-1.548-1.35-2.16
				c-0.576-0.612-1.26-1.092-2.052-1.44c-0.792-0.348-1.656-0.522-2.592-0.522c-1.008,0-1.908,0.18-2.7,0.54
				s-1.458,0.846-1.998,1.458c-0.54,0.612-0.954,1.332-1.242,2.16C17.764,18.083,17.62,18.964,17.62,19.9L17.62,19.9z
				 M48.914,28.324c-0.048-0.456-0.084-0.96-0.108-1.512c-0.024-0.553-0.036-1.008-0.036-1.368h-0.072
				c-0.48,0.983-1.26,1.782-2.34,2.394c-1.08,0.612-2.22,0.918-3.42,0.918c-2.136,0-3.738-0.636-4.806-1.908
				c-1.068-1.271-1.602-2.951-1.602-5.039v-9.867c0,0,0.534-1.07,2.448-0.465v9.324c0,0.888,0.072,1.691,0.216,2.412
				c0.144,0.719,0.39,1.338,0.738,1.854c0.348,0.516,0.816,0.918,1.404,1.206s1.326,0.432,2.214,0.432
				c0.648,0,1.278-0.132,1.89-0.396s1.158-0.666,1.638-1.206s0.864-1.224,1.152-2.052s0.432-1.807,0.432-2.935c0,0,0-4.059,0-6.088
				c0-0.184,0-2.086,0-2.086s0.472-1,2.448-0.465v13.14c0,0.456,0.012,1.044,0.036,1.765c0.024,0.72,0.06,1.367,0.108,1.943H48.914z
				 M66.55,17.452c0-1.464-0.384-2.556-1.151-3.276c-0.769-0.72-1.885-1.08-3.349-1.08c-1.008,0-1.944,0.18-2.808,0.54
				c-0.864,0.36-1.596,0.84-2.196,1.44l-1.368-1.62c0.696-0.696,1.614-1.272,2.754-1.728c1.141-0.456,2.43-0.684,3.87-0.684
				c0.912,0,1.765,0.126,2.556,0.378c0.793,0.252,1.488,0.63,2.088,1.134c0.601,0.504,1.068,1.14,1.404,1.908s0.504,1.668,0.504,2.7
				v7.38c0,0.647,0.024,1.319,0.072,2.016c0.049,0.695,0.12,1.283,0.217,1.764h-2.197c-0.071-0.408-0.131-0.852-0.18-1.332
				c-0.048-0.48-0.072-0.947-0.072-1.404h-0.071c-0.769,1.129-1.638,1.938-2.61,2.431c-0.972,0.491-2.142,0.737-3.51,0.737
				c-0.648,0-1.314-0.09-1.998-0.27s-1.309-0.475-1.872-0.882c-0.563-0.408-1.032-0.937-1.404-1.584
				c-0.372-0.647-0.558-1.44-0.558-2.376c0-1.297,0.33-2.322,0.99-3.078s1.542-1.32,2.646-1.692c1.104-0.372,2.369-0.612,3.797-0.72
				c1.429-0.108,2.91-0.162,4.446-0.162V17.452z M65.83,19.9c-1.008,0-2.021,0.042-3.042,0.126s-1.944,0.252-2.772,0.504
				s-1.506,0.618-2.033,1.099c-0.528,0.479-0.793,1.115-0.793,1.907c0,0.601,0.115,1.104,0.343,1.513s0.534,0.737,0.918,0.989
				c0.384,0.253,0.81,0.433,1.278,0.54c0.467,0.108,0.941,0.162,1.422,0.162c0.863,0,1.632-0.15,2.304-0.449
				c0.672-0.301,1.235-0.709,1.692-1.225c0.455-0.516,0.804-1.109,1.043-1.782c0.24-0.672,0.36-1.38,0.36-2.124V19.9H65.83z
				 M87.314,25.48c-0.721,1.08-1.656,1.896-2.809,2.447c-1.152,0.553-2.34,0.828-3.564,0.828c-1.319,0-2.514-0.228-3.582-0.684
				c-1.067-0.456-1.979-1.08-2.735-1.872s-1.345-1.728-1.765-2.808S72.23,21.148,72.23,19.9s0.209-2.412,0.629-3.492
				s1.009-2.016,1.765-2.808c0.756-0.792,1.668-1.416,2.735-1.872c1.068-0.456,2.263-0.684,3.582-0.684
				c1.225,0,2.412,0.282,3.564,0.846s2.088,1.398,2.809,2.502h0.071c0,0,0-5.842,0-9.668c0-0.722,0-1.372,0-1.897V1.5
				c0-0.608,1.689-0.751,2.448-0.392v3.485v23.73h-2.448V25.48H87.314z M74.82,19.9c0,0.936,0.144,1.818,0.432,2.646
				s0.702,1.547,1.242,2.16c0.54,0.611,1.206,1.092,1.998,1.439s1.691,0.521,2.699,0.521c0.937,0,1.801-0.174,2.593-0.521
				s1.476-0.822,2.052-1.422s1.025-1.314,1.35-2.143s0.486-1.722,0.486-2.682s-0.162-1.854-0.486-2.682s-0.773-1.548-1.35-2.16
				c-0.576-0.612-1.26-1.092-2.052-1.44c-0.792-0.348-1.656-0.522-2.593-0.522c-1.008,0-1.907,0.18-2.699,0.54
				s-1.458,0.846-1.998,1.458c-0.54,0.612-0.954,1.332-1.242,2.16S74.82,18.964,74.82,19.9z M107.943,25.48
				c-0.719,1.08-1.655,1.896-2.807,2.447c-1.152,0.553-2.341,0.828-3.564,0.828c-1.32,0-2.514-0.228-3.582-0.684
				s-1.98-1.08-2.736-1.872s-1.344-1.728-1.764-2.808s-0.631-2.244-0.631-3.492s0.211-2.412,0.631-3.492s1.008-2.016,1.764-2.808
				c0.756-0.792,1.668-1.416,2.736-1.872s2.262-0.684,3.582-0.684c1.224,0,2.412,0.282,3.564,0.846
				c1.151,0.564,2.088,1.398,2.807,2.502h0.072c0,0,0-12.245,0-12.893s1.076-0.68,2.448-0.392v27.216h-2.448V25.48H107.943z
				 M95.882,22.547c0.288,0.828,0.702,1.547,1.242,2.16c0.54,0.611,1.206,1.092,1.998,1.439s1.692,0.521,2.7,0.521
				c0.936,0,1.8-0.174,2.592-0.521s1.477-0.822,2.052-1.422c0.576-0.6,1.026-1.314,1.351-2.143s0.485-1.722,0.485-2.682
				s-0.161-1.854-0.485-2.682s-0.774-1.548-1.351-2.16c-0.575-0.612-1.26-1.092-2.052-1.44c-0.792-0.348-1.656-0.522-2.592-0.522
				c-1.008,0-1.908,0.18-2.7,0.54s-1.458,0.846-1.998,1.458c-0.54,0.612-0.954,1.332-1.242,2.16s-0.432,1.71-0.432,2.646
				C95.45,20.836,95.594,21.719,95.882,22.547z"/>
		</g>
	</g>
</g>
</svg>
