<?xml version="1.0" standalone="no"?>
<!DOCTYPE svg PUBLIC "-//W3C//DTD SVG 1.1//EN" "http://www.w3.org/Graphics/SVG/1.1/DTD/svg11.dtd" >
<svg xmlns="http://www.w3.org/2000/svg">
<metadata></metadata>
<defs>
<font id="eau_doucesans_thin" horiz-adv-x="1050" >
<font-face units-per-em="2048" ascent="1638" descent="-410" />
<missing-glyph horiz-adv-x="477" />
<glyph horiz-adv-x="0" />
<glyph horiz-adv-x="682" />
<glyph unicode=" "  horiz-adv-x="477" />
<glyph unicode="&#x09;" horiz-adv-x="477" />
<glyph unicode="&#xa0;" horiz-adv-x="477" />
<glyph unicode="!" horiz-adv-x="532" d="M205 0v123h123v-123h-123zM219 1366h94l-26 -1038h-41z" />
<glyph unicode="&#x22;" horiz-adv-x="681" d="M141 1010l64 356h108l-116 -356h-56zM346 1010l64 356h108l-117 -356h-55z" />
<glyph unicode="#" horiz-adv-x="1083" d="M96 569v47h215l101 406h-203v47h215l74 297h47l-74 -297h264l74 297h49l-74 -297h203v-47h-215l-100 -406h202v-47h-215l-73 -297h-47l73 297h-266l-74 -297h-47l74 297h-203zM358 616h265l102 406h-266z" />
<glyph unicode="$" horiz-adv-x="968" d="M109 211l45 43q61 -60 151.5 -94.5t183.5 -34.5q130 0 212.5 74.5t82.5 187.5q0 63 -22 109.5t-59 75t-85 49.5t-100.5 37t-105.5 32.5t-101 41t-85 58t-59 88t-22 126.5q0 115 87 200t233 92v205h51v-205q185 -9 324 -141l-43 -43q-138 131 -308 131 q-127 0 -203.5 -70.5t-76.5 -168.5q0 -63 22 -110.5t58.5 -76.5t84.5 -50.5t100.5 -38t105.5 -33t101 -40.5t84.5 -57t58.5 -86.5t22 -124.5q0 -128 -89 -219t-241 -98v-207h-51v207q-102 3 -196 40.5t-160 100.5z" />
<glyph unicode="%" horiz-adv-x="1611" d="M109 989q0 189 72 289t188 100t188 -100t72 -289t-72 -289t-188 -100t-188 100t-72 289zM154 989q0 -168 60.5 -258t154.5 -90t154.5 90t60.5 258t-60.5 258t-154.5 90t-154.5 -90t-60.5 -258zM299 0l956 1366h58l-957 -1366h-57zM983 375q0 189 72 289t188 100 q115 0 186.5 -100t71.5 -289t-71.5 -289t-186.5 -100q-116 0 -188 100t-72 289zM1028 375q0 -168 60.5 -258t154.5 -90t153.5 90t59.5 258t-59.5 258t-153.5 90t-154.5 -90t-60.5 -258z" />
<glyph unicode="&#x26;" horiz-adv-x="1273" d="M123 354q0 58 16 109.5t40.5 90t64 76.5t74.5 64t85 58q-192 204 -192 360q0 124 73.5 202.5t207.5 78.5q128 0 201 -73t73 -208q0 -52 -16.5 -98.5t-40 -80.5t-65.5 -71.5t-74 -60.5t-85 -58l469 -467q76 172 76 476h60q0 -329 -91 -519l234 -233h-78l-182 182 q-133 -209 -434 -209q-191 0 -303.5 108.5t-112.5 272.5zM182 354q0 -137 94.5 -233t258.5 -96q136 0 234.5 47t160.5 153l-490 490q-60 -41 -98 -71.5t-79 -75.5t-61 -98.5t-20 -115.5zM268 1112q0 -79 41.5 -154t139.5 -176q52 33 82.5 54t70.5 55t61.5 63.5t37.5 71 t16 86.5q0 108 -61 171t-164 63q-109 0 -166.5 -65t-57.5 -169z" />
<glyph unicode="'" horiz-adv-x="477" d="M141 1010l64 356h108l-116 -356h-56z" />
<glyph unicode="(" horiz-adv-x="628" d="M205 682q0 223 69 425.5t211 408.5l50 -25q-136 -196 -203.5 -389t-67.5 -420q0 -225 67.5 -418.5t203.5 -388.5l-50 -25q-142 206 -211 408t-69 424z" />
<glyph unicode=")" horiz-adv-x="628" d="M96 -125q135 197 203 390t68 417q0 226 -68 419t-203 390l49 25q141 -205 210 -408t69 -426t-68.5 -425t-210.5 -407z" />
<glyph unicode="*" horiz-adv-x="956" d="M131 1092l16 51l304 -94v317h55v-317l303 94l16 -51l-303 -97l183 -260l-46 -30l-182 258l-180 -258l-45 30l182 260z" />
<glyph unicode="+" d="M137 643v51h363v365h51v-365h364v-51h-364v-362h-51v362h-363z" />
<glyph unicode="," horiz-adv-x="477" d="M141 -231l64 354h108l-116 -354h-56z" />
<glyph unicode="-" horiz-adv-x="681" d="M123 485v54h436v-54h-436z" />
<glyph unicode="." horiz-adv-x="477" d="M178 0v123h123v-123h-123z" />
<glyph unicode="/" horiz-adv-x="591" d="M68 -137l409 1638h47l-407 -1638h-49z" />
<glyph unicode="0" d="M129 682q0 327 109.5 511.5t287.5 184.5q177 0 286.5 -185t109.5 -511t-109.5 -511t-286.5 -185q-178 0 -287.5 184.5t-109.5 511.5zM190 682q0 -287 94 -465t242 -178q147 0 240.5 178t93.5 465t-93.5 465t-240.5 178q-148 0 -242 -178t-94 -465z" />
<glyph unicode="1" d="M164 1145v49q134 19 233 62t183 122h16v-1378h-57v1284q-49 -49 -150.5 -86.5t-224.5 -52.5z" />
<glyph unicode="2" d="M76 0v35q164 150 270 254t199 209t143.5 188t78.5 168t28 172q0 130 -88 218.5t-222 88.5q-109 0 -176.5 -29.5t-134.5 -97.5l-45 45q138 135 356 135q167 0 268 -100.5t101 -259.5q0 -78 -17.5 -151.5t-59 -150t-92 -146.5t-135 -159.5t-167.5 -170.5t-209 -197h762v-51 h-860z" />
<glyph unicode="3" d="M82 115l43 43q130 -127 340 -127q153 0 258.5 89t105.5 228t-105.5 228.5t-258.5 89.5h-178v53h149q166 0 265.5 85.5t99.5 221.5q0 130 -87.5 218.5t-221.5 88.5q-108 0 -177 -29.5t-135 -97.5l-43 45q135 135 355 135q168 0 268 -100.5t100 -259.5q0 -120 -77.5 -212 t-180.5 -118q138 -37 211.5 -131.5t73.5 -216.5q0 -167 -119 -267.5t-303 -100.5q-248 0 -383 135z" />
<glyph unicode="4" d="M76 385v35l649 946h45v-930h219v-51h-219v-385h-55v385h-639zM154 436h561v821z" />
<glyph unicode="5" d="M158 115l43 43q67 -65 132.5 -96t158.5 -31q162 0 263 104t101 254q0 164 -99 261.5t-265 97.5q-69 0 -140.5 -32t-118.5 -79l-38 20v709h700v-53h-647v-606q44 39 114.5 65.5t129.5 26.5q196 0 309.5 -113.5t113.5 -296.5q0 -174 -117.5 -291.5t-305.5 -117.5 q-199 0 -334 135z" />
<glyph unicode="6" d="M123 682q0 316 134.5 510t342.5 194q93 0 178.5 -38.5t143.5 -96.5l-43 -45q-127 127 -279 127q-139 0 -242 -108t-149.5 -301.5t-22.5 -431.5q25 141 121.5 224t239.5 83q171 0 276 -114.5t105 -295.5t-105 -295t-276 -114q-77 0 -139 21t-116 71.5t-90.5 129.5 t-57.5 200.5t-21 279.5zM223 389q0 -156 89 -257t235 -101t234.5 101t88.5 257t-88.5 257.5t-234.5 101.5t-235 -101.5t-89 -257.5z" />
<glyph unicode="7" d="M96 1313v53h860v-20q-230 -267 -382.5 -613.5t-211.5 -732.5h-61q122 754 565 1313h-770z" />
<glyph unicode="8" d="M117 350q0 121 64.5 213.5t193.5 130.5q-44 18 -84 46.5t-75 69t-56 96.5t-21 120q0 73 24.5 137.5t71.5 114.5t122 79t169 29t168.5 -29t121 -79t71 -114t24.5 -138q0 -123 -68.5 -208t-164.5 -124q128 -38 193 -131t65 -213q0 -170 -114 -270t-296 -100 q-184 0 -296.5 100t-112.5 270zM174 350q0 -139 99 -229t253 -90q153 0 252 90t99 229q0 133 -97.5 224.5t-253.5 91.5q-157 0 -254.5 -91.5t-97.5 -224.5zM199 1026q0 -129 89 -218t238 -89q148 0 238 89t90 218t-90 218t-238 89q-149 0 -238 -89t-89 -218z" />
<glyph unicode="9" d="M123 977q0 181 105.5 295t277.5 114q77 0 139 -21t115.5 -71.5t90 -130t57 -201t20.5 -280.5q0 -316 -134.5 -509t-342.5 -193q-93 0 -177.5 38t-144.5 97l45 43q127 -127 277 -127q139 0 242 108t149.5 301t23.5 432q-25 -140 -121.5 -222.5t-238.5 -82.5 q-172 0 -277.5 114.5t-105.5 295.5zM182 977q0 -156 89 -257.5t235 -101.5t234.5 101.5t88.5 257.5q0 155 -88.5 255.5t-234.5 100.5t-235 -100.5t-89 -255.5z" />
<glyph unicode=":" horiz-adv-x="477" d="M178 0v123h123v-123h-123zM178 819v123h123v-123h-123z" />
<glyph unicode=";" horiz-adv-x="477" d="M141 -231l64 354h108l-116 -354h-56zM178 819v123h123v-123h-123z" />
<glyph unicode="&#x3c;" horiz-adv-x="497" d="M137 471l191 383h59l-192 -383l192 -383h-59z" />
<glyph unicode="=" d="M137 451v51h778v-51h-778zM137 836v51h778v-51h-778z" />
<glyph unicode="&#x3e;" horiz-adv-x="497" d="M113 88l190 383l-190 383h57l192 -383l-192 -383h-57z" />
<glyph unicode="?" horiz-adv-x="880" d="M61 1251q72 68 152.5 105t189.5 37q162 0 268.5 -99.5t106.5 -249.5q0 -70 -22 -129t-57 -101t-78 -81t-85.5 -78.5t-77.5 -83.5t-57 -106t-22 -137h-53q0 84 21.5 152.5t56 115t75.5 87t82.5 77t76 75.5t56 92t21.5 117q0 127 -90 209t-222 82q-94 0 -164.5 -33 t-134.5 -96zM293 0v123h123v-123h-123z" />
<glyph unicode="@" horiz-adv-x="1597" d="M109 614q0 209 95 387.5t273 288t402 109.5q175 0 313.5 -74t217.5 -209t79 -307q0 -109 -30.5 -208.5t-77 -165.5t-100.5 -105t-103 -39q-75 0 -118 55.5t-34 138.5q-46 -91 -125.5 -144.5t-179.5 -53.5q-123 0 -195.5 81.5t-72.5 227.5q0 198 112 332.5t275 134.5 q90 0 157.5 -53t79.5 -146l33 183h55l-86 -500q-21 -111 4.5 -158t92.5 -47q37 0 82 36t84.5 95.5t66.5 149.5t27 186q0 162 -76.5 287t-202.5 189.5t-278 64.5q-158 0 -293 -60.5t-226 -162t-142.5 -235t-51.5 -278.5q0 -124 30 -225.5t81.5 -170t122.5 -115.5t150 -68 t167 -21q133 0 254.5 46t199.5 124l37 -37q-84 -84 -212.5 -133t-278.5 -49q-134 0 -244 40.5t-192 119t-127 203.5t-45 286zM510 596q0 -124 57 -191t154 -67q139 0 233.5 115.5t94.5 300.5q0 125 -56.5 191.5t-152.5 66.5q-140 0 -235 -115.5t-95 -300.5z" />
<glyph unicode="A" horiz-adv-x="1105" d="M41 0l491 1366h41l492 -1366h-64l-141 393h-614l-142 -393h-63zM264 444h578l-289 813z" />
<glyph unicode="B" horiz-adv-x="1112" d="M219 0v1366h361q168 0 275.5 -98.5t107.5 -251.5q0 -117 -69 -204t-183 -116q124 -25 201 -117.5t77 -220.5q0 -154 -107 -256t-274 -102h-389zM279 51h329q134 0 225 88.5t91 218.5q0 131 -90.5 219.5t-225.5 88.5h-329v-615zM279 719h301q136 0 226.5 83.5t90.5 213.5 q0 131 -90.5 214t-226.5 83h-301v-594z" />
<glyph unicode="C" horiz-adv-x="1185" d="M123 682q0 153 38.5 282.5t110 225t180 149.5t242.5 54q111 0 206 -38t163 -104l-45 -45q-126 129 -324 129q-158 0 -274 -85t-174 -231.5t-58 -336.5t58 -336t174 -230.5t274 -84.5q197 0 324 127l45 -43q-142 -142 -369 -142q-134 0 -242.5 54t-180 149.5t-110 224.5 t-38.5 281z" />
<glyph unicode="D" horiz-adv-x="1296" d="M219 0v1366h293q304 0 483 -187t179 -497q0 -308 -179 -495t-483 -187h-293zM279 51h233q267 0 431.5 172t164.5 459q0 288 -164 459.5t-432 171.5h-233v-1262z" />
<glyph unicode="E" horiz-adv-x="1019" d="M219 0v1366h643v-53h-583v-594h571v-53h-571v-615h598v-51h-658z" />
<glyph unicode="F" horiz-adv-x="999" d="M219 0v1366h658v-53h-598v-594h583v-53h-583v-666h-60z" />
<glyph unicode="G" horiz-adv-x="1245" d="M123 682q0 204 69 364t203.5 253.5t313.5 93.5q112 0 209.5 -38.5t162.5 -103.5l-43 -45q-60 60 -145 94.5t-184 34.5q-159 0 -278 -85t-181 -232t-62 -336t62 -336t181 -231t278 -84q93 0 175 29t138 81v506h-313v51h372v-583q-65 -65 -162.5 -103.5t-209.5 -38.5 q-179 0 -313.5 93.5t-203.5 253.5t-69 362z" />
<glyph unicode="H" horiz-adv-x="1304" d="M219 0v1366h60v-647h747v647h61v-1366h-61v666h-747v-666h-60z" />
<glyph unicode="I" horiz-adv-x="497" d="M219 0v1366h62v-1366h-62z" />
<glyph unicode="J" horiz-adv-x="839" d="M41 115l43 43q66 -66 128 -96.5t136 -30.5q94 0 152.5 69t58.5 172v1094h62v-1094q0 -133 -71 -216t-202 -83q-91 0 -161.5 33.5t-145.5 108.5z" />
<glyph unicode="K" horiz-adv-x="1075" d="M219 0v1366h60v-659l661 659h80l-680 -674l700 -692h-84l-677 678v-678h-60z" />
<glyph unicode="L" horiz-adv-x="903" d="M219 0v1366h60v-1315h598v-51h-658z" />
<glyph unicode="M" horiz-adv-x="1521" d="M219 0v1366h94l447 -1249l446 1249h97v-1366h-60v1292l-463 -1292h-41l-463 1292v-1292h-57z" />
<glyph unicode="N" horiz-adv-x="1343" d="M219 0v1366h80l766 -1280v1280h59v-1366h-80l-765 1280v-1280h-60z" />
<glyph unicode="O" horiz-adv-x="1349" d="M123 682q0 205 63 364.5t189 253t299 93.5q174 0 300.5 -93.5t189.5 -253t63 -364.5q0 -204 -63 -362.5t-190 -252.5t-300 -94q-172 0 -298.5 94t-189.5 252.5t-63 362.5zM188 682q0 -190 55.5 -336t166.5 -230.5t264 -84.5t264.5 84.5t167 230.5t55.5 336t-55.5 336.5 t-167 231.5t-264.5 85t-264 -85t-166.5 -231.5t-55.5 -336.5z" />
<glyph unicode="P" horiz-adv-x="1091" d="M219 0v1366h361q168 0 275.5 -102.5t107.5 -257.5q0 -154 -108 -256.5t-275 -102.5h-301v-647h-60zM279 698h301q134 0 225.5 89t91.5 219q0 131 -91 219t-226 88h-301v-615z" />
<glyph unicode="Q" horiz-adv-x="1349" d="M123 682q0 205 63 364.5t189 253t299 93.5q174 0 300.5 -93.5t189.5 -253t63 -364.5q0 -176 -50 -322t-143 -241l236 -117l-43 -43l-238 119q-130 -105 -315 -105q-172 0 -298.5 94t-189.5 252.5t-63 362.5zM188 682q0 -190 55.5 -336t166.5 -230.5t264 -84.5t264.5 84.5 t167 230.5t55.5 336t-55.5 336.5t-167 231.5t-264.5 85t-264 -85t-166.5 -231.5t-55.5 -336.5z" />
<glyph unicode="R" horiz-adv-x="1161" d="M219 0v1366h361q168 0 275.5 -98.5t107.5 -251.5q0 -122 -72.5 -208.5t-196.5 -117.5q86 -11 143 -75t78 -150l109 -465h-61l-105 449q-27 110 -93 163.5t-185 53.5h-301v-666h-60zM279 719h301q136 0 226.5 83.5t90.5 213.5q0 131 -90.5 214t-226.5 83h-301v-594z" />
<glyph unicode="S" horiz-adv-x="1003" d="M76 115l45 43q61 -59 156 -93t196 -34q161 0 263 88t102 223q0 75 -25 131t-67 90t-97 59.5t-115 44t-120.5 37t-115.5 45t-97 63t-67 95.5t-25 137q0 145 117.5 247t285.5 102q219 0 371 -142l-45 -45q-132 129 -326 129q-146 0 -242 -88t-96 -203q0 -69 25 -121 t67 -83.5t96.5 -55t115 -41.5t120.5 -37.5t114.5 -48t96.5 -67.5t67 -102t25 -146q0 -163 -117.5 -266t-310.5 -103q-113 0 -220 38t-177 104z" />
<glyph unicode="T" horiz-adv-x="1001" d="M35 1313v53h934v-53h-439v-1313h-59v1313h-436z" />
<glyph unicode="U" horiz-adv-x="1349" d="M219 444v922h60v-922q0 -193 106.5 -303t288.5 -110q183 0 290 110.5t107 302.5v922h59v-922q0 -223 -124.5 -347t-331.5 -124t-331 124t-124 347z" />
<glyph unicode="V" horiz-adv-x="1105" d="M41 1366h65l447 -1257l446 1257h66l-492 -1366h-41z" />
<glyph unicode="W" horiz-adv-x="1597" d="M47 1366h66l323 -1243l336 1243h53l336 -1243l324 1243h65l-362 -1366h-55l-334 1243l-334 -1243h-55z" />
<glyph unicode="X" horiz-adv-x="1097" d="M41 0l475 692l-463 674h72l424 -627l424 627h71l-462 -674l475 -692h-72l-436 647l-436 -647h-72z" />
<glyph unicode="Y" horiz-adv-x="1071" d="M27 1366h73l435 -647l436 647h71l-477 -696v-670h-59v670z" />
<glyph unicode="Z" d="M68 0v45l813 1268h-785v53h860v-45l-813 -1270h840v-51h-915z" />
<glyph unicode="[" horiz-adv-x="655" d="M246 -137v1638h272v-51h-217v-1534h217v-53h-272z" />
<glyph unicode="\" horiz-adv-x="591" d="M68 1501h49l407 -1638h-47z" />
<glyph unicode="]" horiz-adv-x="655" d="M137 -84h217v1534h-217v51h273v-1638h-273v53z" />
<glyph unicode="^" horiz-adv-x="440" d="M51 1075l146 291h47l145 -291h-59l-111 219l-108 -219h-60z" />
<glyph unicode="_" horiz-adv-x="614" d="M0 0v51h614v-51h-614z" />
<glyph unicode="`" horiz-adv-x="440" d="M55 1366h97l145 -291h-49z" />
<glyph unicode="a" horiz-adv-x="1009" d="M123 246q0 119 96 197.5t287 78.5h258v99q0 290 -272 290q-70 0 -140 -28t-125 -74l-41 41q147 113 306 113q161 0 244 -85.5t83 -248.5v-629h-55v231q-44 -110 -133.5 -180.5t-220.5 -70.5q-128 0 -207.5 75t-79.5 191zM182 246q0 -91 63 -153t165 -62 q157 0 255.5 116.5t98.5 288.5v35h-258q-157 0 -240.5 -62t-83.5 -163z" />
<glyph unicode="b" horiz-adv-x="1101" d="M190 0v1366h56v-655q45 112 129.5 182t214.5 70q182 0 292.5 -131t110.5 -361t-110.5 -360.5t-292.5 -130.5q-130 0 -215 69.5t-129 181.5v-231h-56zM246 471q0 -202 94.5 -321t249.5 -119t249.5 119t94.5 321t-94.5 321t-249.5 119t-249.5 -119t-94.5 -321z" />
<glyph unicode="c" horiz-adv-x="925" d="M109 471q0 230 118 361t312 131q162 0 278 -113l-41 -41q-105 102 -237 102q-170 0 -270.5 -118.5t-100.5 -321.5t100.5 -321.5t270.5 -118.5q132 0 237 102l41 -41q-115 -112 -278 -112q-194 0 -312 130.5t-118 360.5z" />
<glyph unicode="d" horiz-adv-x="1101" d="M109 471q0 230 110.5 361t292.5 131q130 0 214.5 -70t129.5 -182v655h55v-1366h-55v231q-44 -112 -129 -181.5t-215 -69.5q-182 0 -292.5 130.5t-110.5 360.5zM168 471q0 -202 94.5 -321t249.5 -119t249.5 119t94.5 321t-94.5 321t-249.5 119t-249.5 -119t-94.5 -321z " />
<glyph unicode="e" horiz-adv-x="968" d="M109 471q0 230 110.5 361t292.5 131q157 0 252.5 -100t95.5 -296v-61h-692q0 -237 95 -356t276 -119q149 0 254 102l41 -41q-115 -112 -295 -112q-206 0 -318 129t-112 362zM170 557h635v10q0 172 -79 258t-214 86q-141 0 -233.5 -101.5t-108.5 -252.5z" />
<glyph unicode="f" horiz-adv-x="628" d="M41 891v51h199v240q0 204 190 204q48 0 96 -20v-53q-41 20 -96 20q-73 0 -105 -34.5t-32 -116.5v-240h233v-51h-233v-891h-53v891h-199z" />
<glyph unicode="g" horiz-adv-x="1101" d="M109 471q0 230 110.5 361t292.5 131q130 0 214.5 -70t129.5 -182v231h55v-936q0 -195 -108.5 -322.5t-290.5 -127.5q-201 0 -322 114l41 41q111 -102 281 -102q154 0 249 109t95 288v225q-44 -112 -129 -181.5t-215 -69.5q-182 0 -292.5 130.5t-110.5 360.5zM168 471 q0 -202 94.5 -321t249.5 -119t249.5 119t94.5 321t-94.5 321t-249.5 119t-249.5 -119t-94.5 -321z" />
<glyph unicode="h" horiz-adv-x="1079" d="M190 0v1366h56v-655q44 110 134.5 181t219.5 71q134 0 210.5 -83t76.5 -251v-629h-53v621q0 145 -64.5 217.5t-169.5 72.5q-156 0 -255 -116.5t-99 -288.5v-506h-56z" />
<glyph unicode="i" horiz-adv-x="440" d="M164 1253v113h112v-113h-112zM190 0v942h58v-942h-58z" />
<glyph unicode="j" horiz-adv-x="440" d="M-39 -371q41 -20 96 -20q72 0 102.5 34t30.5 117v1182h58v-1182q0 -204 -191 -204q-48 0 -96 20v53zM164 1253v113h112v-113h-112z" />
<glyph unicode="k" horiz-adv-x="874" d="M190 0v1366h56v-872l489 448h78l-506 -461l527 -481h-80l-508 469v-469h-56z" />
<glyph unicode="l" horiz-adv-x="440" d="M190 0v1366h58v-1366h-58z" />
<glyph unicode="m" horiz-adv-x="1583" d="M190 0v942h56v-231q44 114 125.5 183t195.5 69q108 0 172.5 -68t73.5 -193q38 115 125.5 188t202.5 73q120 0 186 -82.5t66 -251.5v-629h-56v621q0 290 -196 290q-96 0 -171 -60t-113 -151.5t-38 -193.5v-506h-55v621q0 290 -197 290q-95 0 -170 -60t-113 -151.5 t-38 -193.5v-506h-56z" />
<glyph unicode="n" horiz-adv-x="1079" d="M190 0v942h56v-231q44 110 134.5 181t219.5 71q134 0 210.5 -83t76.5 -251v-629h-53v621q0 145 -64.5 217.5t-169.5 72.5q-156 0 -255 -116.5t-99 -288.5v-506h-56z" />
<glyph unicode="o" horiz-adv-x="1024" d="M109 471q0 230 110.5 361t292.5 131t292.5 -131t110.5 -361t-110.5 -360.5t-292.5 -130.5t-292.5 130.5t-110.5 360.5zM168 471q0 -202 94.5 -321t249.5 -119t249.5 119t94.5 321t-94.5 321t-249.5 119t-249.5 -119t-94.5 -321z" />
<glyph unicode="p" horiz-adv-x="1101" d="M190 -424v1366h56v-231q45 112 129.5 182t214.5 70q182 0 292.5 -131t110.5 -361t-110.5 -360.5t-292.5 -130.5q-130 0 -215 69.5t-129 181.5v-655h-56zM246 471q0 -202 94.5 -321t249.5 -119t249.5 119t94.5 321t-94.5 321t-249.5 119t-249.5 -119t-94.5 -321z" />
<glyph unicode="q" horiz-adv-x="1101" d="M109 471q0 230 110.5 361t292.5 131q130 0 214.5 -70t129.5 -182v231h55v-1366h-55v655q-44 -112 -129 -181.5t-215 -69.5q-182 0 -292.5 130.5t-110.5 360.5zM168 471q0 -202 94.5 -321t249.5 -119t249.5 119t94.5 321t-94.5 321t-249.5 119t-249.5 -119t-94.5 -321z " />
<glyph unicode="r" horiz-adv-x="792" d="M190 0v942h56v-231q44 110 134.5 181t219.5 71q53 0 111 -21v-57q-65 26 -111 26q-156 0 -255 -116.5t-99 -288.5v-506h-56z" />
<glyph unicode="s" horiz-adv-x="874" d="M102 92l41 41q48 -46 123.5 -74t157.5 -28q122 0 192 57t70 143q0 62 -30 105.5t-78 67.5t-106 41.5t-115.5 37t-105.5 46t-78 75.5t-30 119q0 96 79.5 168t221.5 72q88 0 164.5 -30.5t128.5 -82.5l-41 -41q-105 102 -252 102q-116 0 -178.5 -58.5t-62.5 -129.5 q0 -60 30 -101.5t77.5 -63.5t105 -38.5t115 -36t105 -47t77.5 -79.5t30 -126q0 -104 -84.5 -177.5t-234.5 -73.5q-95 0 -183 30.5t-139 81.5z" />
<glyph unicode="t" horiz-adv-x="628" d="M41 891v51h199v287h53v-287h233v-51h-233v-707q0 -83 32 -118t105 -35q48 0 96 20v-51q-41 -20 -96 -20q-190 0 -190 204v707h-199z" />
<glyph unicode="u" horiz-adv-x="1079" d="M190 313v629h56v-620q0 -145 64 -218t167 -73q157 0 257 116.5t100 288.5v506h53v-942h-53v231q-44 -109 -135 -180t-222 -71q-133 0 -210 83t-77 250z" />
<glyph unicode="v" horiz-adv-x="833" d="M41 942h61l314 -850l315 850h62l-353 -942h-47z" />
<glyph unicode="w" horiz-adv-x="1302" d="M41 942h59l265 -844l266 844h41l266 -844l264 844h60l-297 -942h-52l-262 834l-262 -834h-51z" />
<glyph unicode="x" horiz-adv-x="804" d="M41 0l330 481l-316 461h64l284 -420l283 420h66l-316 -461l328 -481h-66l-295 440l-297 -440h-65z" />
<glyph unicode="y" horiz-adv-x="833" d="M41 942h61l314 -850l315 850h62l-480 -1284q-38 -102 -176 -102q-46 0 -94 20v53q39 -20 94 -20q101 0 123 67l127 340z" />
<glyph unicode="z" horiz-adv-x="880" d="M96 0v35l588 856h-575v51h655v-35l-588 -856h602v-51h-682z" />
<glyph unicode="{" horiz-adv-x="669" d="M82 657v52h41q74 0 126 64t52 169v375q0 205 191 205q52 0 96 -21v-51q-41 20 -96 20q-73 0 -105.5 -35.5t-32.5 -117.5v-375q0 -104 -53.5 -176.5t-134.5 -83.5q81 -11 134.5 -82.5t53.5 -175.5v-377q0 -82 32.5 -116.5t105.5 -34.5q55 0 96 20v-53q-51 -21 -96 -21 q-191 0 -191 205v377q0 104 -52.5 168.5t-125.5 64.5h-41z" />
<glyph unicode="|" horiz-adv-x="600" d="M272 -424v1790h56v-1790h-56z" />
<glyph unicode="}" horiz-adv-x="669" d="M82 -84q39 -20 96 -20q72 0 103.5 34.5t31.5 116.5v377q0 104 54 175.5t135 82.5q-81 11 -135 83.5t-54 176.5v375q0 82 -32 117.5t-103 35.5q-57 0 -96 -20v51q43 21 96 21q191 0 191 -205v-375q0 -105 52 -169t126 -64h41v-52h-41q-73 0 -125.5 -64.5t-52.5 -168.5 v-377q0 -205 -191 -205q-45 0 -96 21v53z" />
<glyph unicode="~" horiz-adv-x="911" d="M123 547q76 76 115 101.5t92 25.5q36 0 66 -12.5t51 -31t40.5 -36.5t43.5 -30.5t51 -12.5q33 0 67.5 24.5t100.5 90.5l38 -41q-76 -76 -115 -101.5t-91 -25.5q-35 0 -64.5 12.5t-50.5 31t-41 36.5t-44.5 30.5t-51.5 12.5q-32 0 -67.5 -25t-100.5 -90z" />
<glyph unicode="&#xa1;" horiz-adv-x="532" d="M205 1243v123h123v-123h-123zM219 0l27 1038h41l26 -1038h-94z" />
<glyph unicode="&#xa2;" horiz-adv-x="925" d="M109 682q0 221 110 352t293 140v192h51v-192q149 -8 254 -113l-41 -41q-102 102 -237 102q-170 0 -270.5 -118.5t-100.5 -321.5q0 -202 101 -320t270 -118q135 0 237 102l41 -41q-107 -107 -254 -112v-193h-51v193q-183 9 -293 138.5t-110 350.5z" />
<glyph unicode="&#xa3;" horiz-adv-x="1026" d="M109 0v51h137v561h-137v54h137v378q0 150 89 249.5t251 99.5q175 0 317 -142l-43 -45q-129 129 -274 129q-134 0 -207.5 -81t-73.5 -210v-378h324v-54h-324v-561h598v-51h-794z" />
<glyph unicode="&#xa5;" horiz-adv-x="1071" d="M27 1366h73l435 -647l436 647h71l-411 -602h248v-51h-285l-29 -43v-176h314v-52h-314v-442h-59v442h-316v52h316v176l-31 43h-285v51h250z" />
<glyph unicode="&#xa6;" horiz-adv-x="600" d="M272 -137v717h56v-717h-56zM272 784v717h56v-717h-56z" />
<glyph unicode="&#xa7;" horiz-adv-x="1009" d="M137 465q0 83 37.5 152.5t114.5 113.5t180 45q-297 62 -297 316q0 122 94.5 208t251.5 86q202 0 348 -143l-43 -43q-134 131 -305 131q-129 0 -205.5 -69.5t-76.5 -169.5q0 -63 22 -110.5t58.5 -76.5t84.5 -50.5t100.5 -37.5t105 -32.5t100.5 -40.5t84.5 -56.5t58.5 -86 t22 -124.5q0 -129 -89 -219.5t-242 -91.5q297 -62 297 -316q0 -122 -95 -208t-251 -86q-202 0 -351 143l45 43q134 -131 306 -131q129 0 204.5 69.5t75.5 169.5q0 63 -21.5 110.5t-58.5 76.5t-84.5 50.5t-100 37.5t-105.5 32.5t-100.5 40.5t-84.5 56.5t-58.5 86t-21.5 124.5 zM199 471q0 -121 77.5 -188.5t227.5 -67.5q143 0 225 75.5t82 180.5q0 121 -78.5 188.5t-228.5 67.5q-142 0 -223.5 -75.5t-81.5 -180.5z" />
<glyph unicode="&#xa8;" horiz-adv-x="440" d="M51 1253v113h113v-113h-113zM276 1253v113h111v-113h-111z" />
<glyph unicode="&#xa9;" horiz-adv-x="1597" d="M117 682q0 139 54 265.5t145 218t217.5 146t265.5 54.5t265.5 -54.5t217.5 -146t145 -218t54 -265.5t-54 -265.5t-145 -217.5t-217.5 -145t-265.5 -54t-265.5 54t-217.5 145t-145 217.5t-54 265.5zM166 682q0 -129 50 -246t135 -202t202 -135t246 -50t246 50t202 135 t135 202t50 246t-50 246.5t-135 202.5t-202 135.5t-246 50.5t-246 -50.5t-202 -135.5t-135 -202.5t-50 -246.5zM483 682q0 177 91.5 291t246.5 114q127 0 217 -86l-30 -30q-30 30 -83 51.5t-104 21.5q-133 0 -211 -99t-78 -263q0 -162 78 -261t211 -99q52 0 104.5 21 t82.5 52l30 -30q-90 -86 -217 -86q-155 0 -246.5 113.5t-91.5 289.5z" />
<glyph unicode="&#xaa;" horiz-adv-x="751" d="M96 877q0 89 67 144.5t206 55.5h176v64q0 94 -45 142t-131 48q-96 0 -176 -67l-37 36q99 78 213 78q227 0 227 -233v-440h-51v149q-34 -74 -97.5 -119t-146.5 -45q-92 0 -148.5 53.5t-56.5 133.5zM150 877q0 -58 40.5 -96t110.5 -38q111 0 177.5 74.5t66.5 194.5v18h-176 q-110 0 -164.5 -44.5t-54.5 -108.5z" />
<glyph unicode="&#xab;" horiz-adv-x="675" d="M137 471l191 383h59l-192 -383l192 -383h-59zM313 471l193 383h57l-190 -383l190 -383h-57z" />
<glyph unicode="&#xad;" horiz-adv-x="681" d="M123 485v54h436v-54h-436z" />
<glyph unicode="&#xae;" horiz-adv-x="1597" d="M117 682q0 139 54 265.5t145 218t217.5 146t265.5 54.5t265.5 -54.5t217.5 -146t145 -218t54 -265.5t-54 -265.5t-145 -217.5t-217.5 -145t-265.5 -54t-265.5 54t-217.5 145t-145 217.5t-54 265.5zM166 682q0 -129 50 -246t135 -202t202 -135t246 -50t246 50t202 135 t135 202t50 246t-50 246.5t-135 202.5t-202 135.5t-246 50.5t-246 -50.5t-202 -135.5t-135 -202.5t-50 -246.5zM571 293v778h211q97 0 161.5 -56t64.5 -143q0 -69 -41.5 -119t-112.5 -67q52 -7 84.5 -42.5t44.5 -84.5l64 -266h-52l-57 254q-15 62 -51 88.5t-105 26.5h-161 v-369h-50zM621 711h161q78 0 126 44t48 117q0 74 -47 114t-127 40h-161v-315z" />
<glyph unicode="&#xaf;" horiz-adv-x="614" d="M123 1247v53h369v-53h-369z" />
<glyph unicode="&#xb0;" horiz-adv-x="587" d="M68 1161q0 92 66.5 158.5t158.5 66.5q93 0 159 -66t66 -159q0 -94 -65.5 -159.5t-159.5 -65.5q-93 0 -159 66t-66 159zM117 1161q0 -74 51.5 -126t124.5 -52t125.5 52.5t52.5 125.5t-52 124.5t-126 51.5q-73 0 -124.5 -51.5t-51.5 -124.5z" />
<glyph unicode="&#xb1;" d="M137 125v51h778v-51h-778zM137 844v51h363v365h51v-365h364v-51h-364v-363h-51v363h-363z" />
<glyph unicode="&#xb2;" horiz-adv-x="937" d="M184 446v29q136 124 218 207.5t143.5 164t86.5 147.5t25 139q0 84 -56.5 139t-141.5 55q-71 0 -118 -21t-89 -61l-37 37q103 92 244 92q115 0 184.5 -66t69.5 -175q0 -62 -18.5 -121t-49.5 -112.5t-91 -121.5t-122 -129t-164 -155h492v-48h-576z" />
<glyph unicode="&#xb3;" horiz-adv-x="937" d="M170 526l37 37q94 -82 227 -82q103 0 170.5 57t67.5 136q0 86 -67 149.5t-171 63.5h-119v45h101q103 0 170 57.5t67 143.5q0 81 -57 137.5t-143 56.5q-70 0 -117 -21.5t-90 -60.5l-37 37q102 92 244 92q115 0 184.5 -66t69.5 -175q0 -79 -51.5 -140.5t-120.5 -79.5 q99 -26 145.5 -90.5t46.5 -148.5q0 -101 -80 -171.5t-213 -70.5q-153 0 -264 94z" />
<glyph unicode="&#xb4;" horiz-adv-x="440" d="M143 1075l146 291h94l-193 -291h-47z" />
<glyph unicode="&#xb6;" horiz-adv-x="907" d="M68 989q0 155 110.5 266t265.5 111h218v-1790h-54v1737h-110v-1737h-54v1038q-155 0 -265.5 110.5t-110.5 264.5z" />
<glyph unicode="&#xb7;" horiz-adv-x="477" d="M178 485v123h123v-123h-123z" />
<glyph unicode="&#xb8;" horiz-adv-x="641" d="M143 -291l35 35q59 -59 129 -59q53 0 85 28t32 62q0 42 -37.5 72t-105.5 30l61 123h53l-47 -92q55 -6 90 -45t35 -82q0 -60 -44 -101.5t-122 -41.5q-93 0 -164 71z" />
<glyph unicode="&#xb9;" horiz-adv-x="937" d="M231 1200v47q182 23 279 123h22v-924h-51v846q-69 -66 -250 -92z" />
<glyph unicode="&#xba;" horiz-adv-x="796" d="M109 1034q0 159 81 251.5t209 92.5q127 0 208 -92.5t81 -251.5t-81 -251.5t-208 -92.5q-128 0 -209 92.5t-81 251.5zM164 1034q0 -141 63 -218t172 -77q108 0 171 77.5t63 217.5q0 141 -63.5 219t-170.5 78q-109 0 -172 -78t-63 -219z" />
<glyph unicode="&#xbb;" horiz-adv-x="675" d="M113 88l190 383l-190 383h57l192 -383l-192 -383h-57zM289 88l192 383l-192 383h59l191 -383l-191 -383h-59z" />
<glyph unicode="&#xbc;" horiz-adv-x="1916" d="M231 1200v47q182 23 279 123h22v-924h-51v846q-69 -66 -250 -92zM461 0l954 1366h58l-955 -1366h-57zM1120 252v31l432 628h47v-612h146v-47h-146v-252h-53v252h-426zM1190 299h356v524z" />
<glyph unicode="&#xbd;" horiz-adv-x="1916" d="M231 1200v47q182 23 279 123h22v-924h-51v846q-69 -66 -250 -92zM461 0l954 1366h58l-955 -1366h-57zM1178 0v29q269 245 371 382t102 275q0 84 -57.5 139.5t-141.5 55.5q-71 0 -118 -21t-91 -61l-37 37q103 92 246 92q115 0 184.5 -66.5t69.5 -175.5q0 -62 -18.5 -121 t-49.5 -112.5t-90.5 -121.5t-122.5 -129.5t-165 -154.5h493v-47h-575z" />
<glyph unicode="&#xbe;" horiz-adv-x="1916" d="M170 526l37 37q94 -82 227 -82q103 0 170.5 57t67.5 136q0 86 -67 149.5t-171 63.5h-119v45h101q103 0 170 57.5t67 143.5q0 81 -57 137.5t-143 56.5q-70 0 -117 -21.5t-90 -60.5l-37 37q102 92 244 92q115 0 184.5 -66t69.5 -175q0 -79 -51.5 -140.5t-120.5 -79.5 q99 -26 145.5 -90.5t46.5 -148.5q0 -101 -80 -171.5t-213 -70.5q-153 0 -264 94zM461 0l954 1366h58l-955 -1366h-57zM1120 252v31l432 628h47v-612h146v-47h-146v-252h-53v252h-426zM1190 299h356v524z" />
<glyph unicode="&#xbf;" horiz-adv-x="880" d="M102 322q0 70 22 129t57.5 101t78 81t85 78.5t78 83.5t57.5 106t22 137h53q0 -84 -21.5 -153t-56 -115.5t-76 -87t-82.5 -77.5t-75.5 -75.5t-56 -91t-21.5 -116.5q0 -127 89.5 -209t221.5 -82q93 0 163.5 33t135.5 94l43 -43q-72 -68 -152.5 -105t-189.5 -37 q-163 0 -269 99t-106 250zM465 1243v123h123v-123h-123z" />
<glyph unicode="&#xc0;" horiz-adv-x="1105" d="M41 0l491 1366h41l492 -1366h-64l-141 393h-614l-142 -393h-63zM264 444h578l-289 813zM381 1776h96l146 -291h-50z" />
<glyph unicode="&#xc1;" horiz-adv-x="1105" d="M41 0l491 1366h41l492 -1366h-64l-141 393h-614l-142 -393h-63zM264 444h578l-289 813zM485 1485l146 291h94l-193 -291h-47z" />
<glyph unicode="&#xc2;" horiz-adv-x="1105" d="M41 0l491 1366h41l492 -1366h-64l-141 393h-614l-142 -393h-63zM264 444h578l-289 813zM383 1485l145 291h47l146 -291h-59l-111 219l-109 -219h-59z" />
<glyph unicode="&#xc3;" horiz-adv-x="1105" d="M41 0l491 1366h41l492 -1366h-64l-141 393h-614l-142 -393h-63zM258 1595q0 67 53.5 111.5t122.5 44.5q35 0 64.5 -12.5t50.5 -30.5t40.5 -36.5t43.5 -31t51 -12.5q43 0 80 30t37 73h59q0 -67 -53.5 -111.5t-122.5 -44.5q-35 0 -64.5 12.5t-50.5 30.5t-40.5 36.5 t-43.5 31t-51 12.5q-43 0 -80 -30t-37 -73h-59zM264 444h578l-289 813z" />
<glyph unicode="&#xc4;" horiz-adv-x="1105" d="M41 0l491 1366h41l492 -1366h-64l-141 393h-614l-142 -393h-63zM264 444h578l-289 813zM385 1663v113h113v-113h-113zM610 1663v113h111v-113h-111z" />
<glyph unicode="&#xc5;" horiz-adv-x="1105" d="M41 0l491 1366h41l492 -1366h-64l-141 393h-614l-142 -393h-63zM264 444h578l-289 813zM403 1653q0 62 44.5 105.5t107.5 43.5q62 0 106 -44t44 -105q0 -63 -44 -107.5t-106 -44.5q-63 0 -107.5 44.5t-44.5 107.5zM444 1653q0 -46 32.5 -78.5t78.5 -32.5q44 0 76.5 32.5 t32.5 78.5q0 44 -32.5 76t-76.5 32q-46 0 -78.5 -32t-32.5 -76z" />
<glyph unicode="&#xc6;" horiz-adv-x="1570" d="M-47 0l790 1366h670v-53h-584v-594h570v-53h-570v-615h598v-51h-655v393h-520l-225 -393h-74zM283 444h489v852z" />
<glyph unicode="&#xc7;" horiz-adv-x="1185" d="M123 682q0 153 38.5 282.5t110 225t180 149.5t242.5 54q111 0 206 -38t163 -104l-45 -45q-126 129 -324 129q-158 0 -274 -85t-174 -231.5t-58 -336.5t58 -336t174 -230.5t274 -84.5q197 0 324 127l45 -43q-142 -142 -369 -142l-32 -65q55 -6 89.5 -45t34.5 -82 q0 -61 -43 -102t-122 -41q-93 0 -164 71l35 35q59 -59 129 -59q54 0 85 28t31 62q0 41 -37 71.5t-104 30.5l49 98q-163 13 -282.5 109t-179.5 250t-60 348z" />
<glyph unicode="&#xc8;" horiz-adv-x="1019" d="M219 0v1366h643v-53h-583v-594h571v-53h-571v-615h598v-51h-658zM352 1776h97l145 -291h-49z" />
<glyph unicode="&#xc9;" horiz-adv-x="1019" d="M219 0v1366h643v-53h-583v-594h571v-53h-571v-615h598v-51h-658zM498 1485l145 291h94l-192 -291h-47z" />
<glyph unicode="&#xca;" horiz-adv-x="1019" d="M219 0v1366h643v-53h-583v-594h571v-53h-571v-615h598v-51h-658zM367 1485l145 291h47l146 -291h-60l-110 219l-109 -219h-59z" />
<glyph unicode="&#xcb;" horiz-adv-x="1019" d="M219 0v1366h643v-53h-583v-594h571v-53h-571v-615h598v-51h-658zM385 1663v113h113v-113h-113zM610 1663v113h111v-113h-111z" />
<glyph unicode="&#xcc;" horiz-adv-x="497" d="M88 1776h96l146 -291h-49zM219 0v1366h62v-1366h-62z" />
<glyph unicode="&#xcd;" horiz-adv-x="497" d="M166 1485l145 291h95l-193 -291h-47zM219 0v1366h62v-1366h-62z" />
<glyph unicode="&#xce;" horiz-adv-x="497" d="M80 1485l145 291h47l146 -291h-60l-110 219l-109 -219h-59zM219 0v1366h62v-1366h-62z" />
<glyph unicode="&#xcf;" horiz-adv-x="497" d="M80 1663v113h113v-113h-113zM219 0v1366h62v-1366h-62zM305 1663v113h111v-113h-111z" />
<glyph unicode="&#xd0;" horiz-adv-x="1304" d="M41 657v52h184v657h293q305 0 484.5 -187t179.5 -497q0 -308 -179.5 -495t-484.5 -187h-293v657h-184zM285 51h233q267 0 432.5 172t165.5 459q0 288 -165 459.5t-433 171.5h-233v-604h184v-52h-184v-606z" />
<glyph unicode="&#xd1;" horiz-adv-x="1343" d="M219 0v1366h80l766 -1280v1280h59v-1366h-80l-765 1280v-1280h-60zM367 1595q0 67 52.5 111.5t121.5 44.5q36 0 65.5 -12.5t50.5 -30.5t40.5 -36.5t44 -31t51.5 -12.5q43 0 78.5 30.5t35.5 72.5h60q0 -67 -53.5 -111.5t-120.5 -44.5q-36 0 -65.5 12.5t-50.5 30.5 t-40.5 36.5t-44 31t-51.5 12.5q-43 0 -80 -31t-37 -72h-57z" />
<glyph unicode="&#xd2;" horiz-adv-x="1349" d="M123 682q0 205 63 364.5t189 253t299 93.5q174 0 300.5 -93.5t189.5 -253t63 -364.5q0 -204 -63 -362.5t-190 -252.5t-300 -94q-172 0 -298.5 94t-189.5 252.5t-63 362.5zM188 682q0 -190 55.5 -336t166.5 -230.5t264 -84.5t264.5 84.5t167 230.5t55.5 336t-55.5 336.5 t-167 231.5t-264.5 85t-264 -85t-166.5 -231.5t-55.5 -336.5zM481 1776h97l145 -291h-49z" />
<glyph unicode="&#xd3;" horiz-adv-x="1349" d="M123 682q0 205 63 364.5t189 253t299 93.5q174 0 300.5 -93.5t189.5 -253t63 -364.5q0 -204 -63 -362.5t-190 -252.5t-300 -94q-172 0 -298.5 94t-189.5 252.5t-63 362.5zM188 682q0 -190 55.5 -336t166.5 -230.5t264 -84.5t264.5 84.5t167 230.5t55.5 336t-55.5 336.5 t-167 231.5t-264.5 85t-264 -85t-166.5 -231.5t-55.5 -336.5zM625 1485l145 291h94l-192 -291h-47z" />
<glyph unicode="&#xd4;" horiz-adv-x="1349" d="M123 682q0 205 63 364.5t189 253t299 93.5q174 0 300.5 -93.5t189.5 -253t63 -364.5q0 -204 -63 -362.5t-190 -252.5t-300 -94q-172 0 -298.5 94t-189.5 252.5t-63 362.5zM188 682q0 -190 55.5 -336t166.5 -230.5t264 -84.5t264.5 84.5t167 230.5t55.5 336t-55.5 336.5 t-167 231.5t-264.5 85t-264 -85t-166.5 -231.5t-55.5 -336.5zM510 1485l145 291h47l146 -291h-60l-110 219l-109 -219h-59z" />
<glyph unicode="&#xd5;" horiz-adv-x="1349" d="M123 682q0 205 63 364.5t189 253t299 93.5q174 0 300.5 -93.5t189.5 -253t63 -364.5q0 -204 -63 -362.5t-190 -252.5t-300 -94q-172 0 -298.5 94t-189.5 252.5t-63 362.5zM188 682q0 -190 55.5 -336t166.5 -230.5t264 -84.5t264.5 84.5t167 230.5t55.5 336t-55.5 336.5 t-167 231.5t-264.5 85t-264 -85t-166.5 -231.5t-55.5 -336.5zM379 1595q0 67 53.5 111.5t122.5 44.5q35 0 64.5 -12.5t50.5 -30.5t40.5 -36.5t43.5 -31t51 -12.5q43 0 80 30t37 73h59q0 -67 -53.5 -111.5t-122.5 -44.5q-35 0 -64.5 12.5t-50.5 30.5t-40.5 36.5t-43.5 31 t-51 12.5q-43 0 -80 -30t-37 -73h-59z" />
<glyph unicode="&#xd6;" horiz-adv-x="1349" d="M123 682q0 205 63 364.5t189 253t299 93.5q174 0 300.5 -93.5t189.5 -253t63 -364.5q0 -204 -63 -362.5t-190 -252.5t-300 -94q-172 0 -298.5 94t-189.5 252.5t-63 362.5zM188 682q0 -190 55.5 -336t166.5 -230.5t264 -84.5t264.5 84.5t167 230.5t55.5 336t-55.5 336.5 t-167 231.5t-264.5 85t-264 -85t-166.5 -231.5t-55.5 -336.5zM506 1663v113h112v-113h-112zM731 1663v113h111v-113h-111z" />
<glyph unicode="&#xd7;" d="M182 362l307 308l-307 307l37 37l307 -307l308 307l36 -37l-307 -307l307 -308l-36 -36l-308 307l-307 -307z" />
<glyph unicode="&#xd8;" horiz-adv-x="1349" d="M123 682q0 205 63 364.5t189 253t299 93.5q200 0 340 -127l106 168h54l-125 -201q87 -96 132.5 -238t45.5 -313q0 -204 -63 -362.5t-190 -252.5t-300 -94q-202 0 -340 125l-105 -166h-55l127 201q-87 94 -132.5 236.5t-45.5 312.5zM188 682q0 -153 38 -280.5t110 -215.5 l645 1028q-124 121 -307 121q-153 0 -264 -85t-166.5 -231.5t-55.5 -336.5zM369 152q121 -121 305 -121q153 0 264.5 84.5t167 230.5t55.5 336q0 317 -147 496z" />
<glyph unicode="&#xd9;" horiz-adv-x="1349" d="M219 444v922h60v-922q0 -193 106.5 -303t288.5 -110q183 0 290 110.5t107 302.5v922h59v-922q0 -223 -124.5 -347t-331.5 -124t-331 124t-124 347zM481 1776h94l146 -291h-47z" />
<glyph unicode="&#xda;" horiz-adv-x="1349" d="M219 444v922h60v-922q0 -193 106.5 -303t288.5 -110q183 0 290 110.5t107 302.5v922h59v-922q0 -223 -124.5 -347t-331.5 -124t-331 124t-124 347zM625 1485l143 291h96l-192 -291h-47z" />
<glyph unicode="&#xdb;" horiz-adv-x="1349" d="M219 444v922h60v-922q0 -193 106.5 -303t288.5 -110q183 0 290 110.5t107 302.5v922h59v-922q0 -223 -124.5 -347t-331.5 -124t-331 124t-124 347zM510 1485l147 291h45l148 -291h-62l-108 219l-109 -219h-61z" />
<glyph unicode="&#xdc;" horiz-adv-x="1349" d="M219 444v922h60v-922q0 -193 106.5 -303t288.5 -110q183 0 290 110.5t107 302.5v922h59v-922q0 -223 -124.5 -347t-331.5 -124t-331 124t-124 347zM506 1663v113h110v-113h-110zM729 1663v113h113v-113h-113z" />
<glyph unicode="&#xdd;" horiz-adv-x="1071" d="M27 1366h73l435 -647l436 647h71l-477 -696v-670h-59v670zM485 1485l146 291h94l-193 -291h-47z" />
<glyph unicode="&#xde;" horiz-adv-x="1091" d="M219 0v1366h62v-324h299q168 0 275.5 -102.5t107.5 -257.5q0 -154 -108 -256t-275 -102h-299v-324h-62zM281 375h299q135 0 226 89t91 218q0 131 -91 219t-226 88h-299v-614z" />
<glyph unicode="&#xdf;" horiz-adv-x="1064" d="M190 0v1020q0 157 94 261.5t246 104.5q151 0 246.5 -96.5t95.5 -251.5q0 -107 -58 -194t-157 -117q123 -20 204 -115.5t81 -242.5q0 -182 -103 -285.5t-272 -103.5q-49 0 -104 18t-88 43v59q86 -69 192 -69q139 0 227.5 91t88.5 240q0 150 -88.5 241t-227.5 91h-151v51 h123q122 0 198 88t76 205q0 130 -82 212.5t-201 82.5q-127 0 -205.5 -90t-78.5 -223v-1020h-56z" />
<glyph unicode="&#xe0;" horiz-adv-x="1009" d="M123 246q0 119 96 197.5t287 78.5h258v99q0 290 -272 290q-70 0 -140 -28t-125 -74l-41 41q147 113 306 113q161 0 244 -85.5t83 -248.5v-629h-55v231q-44 -110 -133.5 -180.5t-220.5 -70.5q-128 0 -207.5 75t-79.5 191zM182 246q0 -91 63 -153t165 -62 q157 0 255.5 116.5t98.5 288.5v35h-258q-157 0 -240.5 -62t-83.5 -163zM313 1366h97l145 -291h-49z" />
<glyph unicode="&#xe1;" horiz-adv-x="1009" d="M123 246q0 119 96 197.5t287 78.5h258v99q0 290 -272 290q-70 0 -140 -28t-125 -74l-41 41q147 113 306 113q161 0 244 -85.5t83 -248.5v-629h-55v231q-44 -110 -133.5 -180.5t-220.5 -70.5q-128 0 -207.5 75t-79.5 191zM182 246q0 -91 63 -153t165 -62 q157 0 255.5 116.5t98.5 288.5v35h-258q-157 0 -240.5 -62t-83.5 -163zM457 1075l145 291h94l-192 -291h-47z" />
<glyph unicode="&#xe2;" horiz-adv-x="1009" d="M123 246q0 119 96 197.5t287 78.5h258v99q0 290 -272 290q-70 0 -140 -28t-125 -74l-41 41q147 113 306 113q161 0 244 -85.5t83 -248.5v-629h-55v231q-44 -110 -133.5 -180.5t-220.5 -70.5q-128 0 -207.5 75t-79.5 191zM182 246q0 -91 63 -153t165 -62 q157 0 255.5 116.5t98.5 288.5v35h-258q-157 0 -240.5 -62t-83.5 -163zM326 1075l145 291h47l146 -291h-60l-110 219l-109 -219h-59z" />
<glyph unicode="&#xe3;" horiz-adv-x="1009" d="M123 246q0 119 96 197.5t287 78.5h258v99q0 290 -272 290q-70 0 -140 -28t-125 -74l-41 41q147 113 306 113q161 0 244 -85.5t83 -248.5v-629h-55v231q-44 -110 -133.5 -180.5t-220.5 -70.5q-128 0 -207.5 75t-79.5 191zM182 246q0 -91 63 -153t165 -62 q157 0 255.5 116.5t98.5 288.5v35h-258q-157 0 -240.5 -62t-83.5 -163zM195 1186q0 67 53.5 111t122.5 44q43 0 79 -19t57 -42t51.5 -42t62.5 -19q43 0 79.5 29.5t36.5 72.5h60q0 -67 -53.5 -111.5t-122.5 -44.5q-35 0 -64.5 12.5t-50.5 30.5t-40.5 36.5t-43.5 31t-51 12.5 q-43 0 -80 -30t-37 -72h-59z" />
<glyph unicode="&#xe4;" horiz-adv-x="1009" d="M123 246q0 119 96 197.5t287 78.5h258v99q0 290 -272 290q-70 0 -140 -28t-125 -74l-41 41q147 113 306 113q161 0 244 -85.5t83 -248.5v-629h-55v231q-44 -110 -133.5 -180.5t-220.5 -70.5q-128 0 -207.5 75t-79.5 191zM182 246q0 -91 63 -153t165 -62 q157 0 255.5 116.5t98.5 288.5v35h-258q-157 0 -240.5 -62t-83.5 -163zM326 1253v113h112v-113h-112zM551 1253v113h111v-113h-111z" />
<glyph unicode="&#xe5;" horiz-adv-x="1009" d="M123 246q0 119 96 197.5t287 78.5h258v99q0 290 -272 290q-70 0 -140 -28t-125 -74l-41 41q147 113 306 113q161 0 244 -85.5t83 -248.5v-629h-55v231q-44 -110 -133.5 -180.5t-220.5 -70.5q-128 0 -207.5 75t-79.5 191zM182 246q0 -91 63 -153t165 -62 q157 0 255.5 116.5t98.5 288.5v35h-258q-157 0 -240.5 -62t-83.5 -163zM354 1243q0 62 44.5 106t107.5 44q61 0 105 -44t44 -106q0 -63 -43.5 -107t-105.5 -44q-63 0 -107.5 44t-44.5 107zM395 1243q0 -46 32.5 -78t78.5 -32q44 0 76 32t32 78q0 44 -32 76.5t-76 32.5 q-46 0 -78.5 -32.5t-32.5 -76.5z" />
<glyph unicode="&#xe6;" horiz-adv-x="1619" d="M123 260q0 120 96 201.5t287 81.5h258v78q0 143 -74 216.5t-198 73.5q-70 0 -140 -28t-125 -74l-41 41q147 113 306 113q129 0 214 -66.5t103 -189.5q44 123 136 189.5t218 66.5q157 0 252.5 -100t95.5 -296v-75h-692q0 -228 97 -344.5t274 -116.5q149 0 254 102l41 -41 q-115 -112 -295 -112q-161 0 -264.5 81t-137.5 232q-27 -130 -127 -221.5t-251 -91.5q-131 0 -209 77t-78 203zM182 260q0 -99 62 -164t166 -65q157 0 255.5 116.5t98.5 288.5v56h-258q-156 0 -240 -65t-84 -167zM821 543h635v24q0 172 -79 258t-214 86 q-142 0 -237.5 -107.5t-104.5 -260.5z" />
<glyph unicode="&#xe7;" horiz-adv-x="925" d="M109 471q0 230 118 361t312 131q162 0 278 -113l-41 -41q-105 102 -237 102q-170 0 -270.5 -118.5t-100.5 -321.5t100.5 -321.5t270.5 -118.5q132 0 237 102l41 -41q-113 -109 -266 -112l-37 -72q55 -6 90 -45t35 -82q0 -61 -43.5 -102t-122.5 -41q-93 0 -164 71l35 35 q59 -59 129 -59q53 0 85 28t32 62q0 41 -37 71.5t-104 30.5l51 105q-178 14 -284.5 143t-106.5 346z" />
<glyph unicode="&#xe8;" horiz-adv-x="968" d="M109 471q0 230 110.5 361t292.5 131q157 0 252.5 -100t95.5 -296v-61h-692q0 -237 95 -356t276 -119q149 0 254 102l41 -41q-115 -112 -295 -112q-206 0 -318 129t-112 362zM170 557h635v10q0 172 -79 258t-214 86q-141 0 -233.5 -101.5t-108.5 -252.5zM319 1366h97 l145 -291h-49z" />
<glyph unicode="&#xe9;" horiz-adv-x="968" d="M109 471q0 230 110.5 361t292.5 131q157 0 252.5 -100t95.5 -296v-61h-692q0 -237 95 -356t276 -119q149 0 254 102l41 -41q-115 -112 -295 -112q-206 0 -318 129t-112 362zM170 557h635v10q0 172 -79 258t-214 86q-141 0 -233.5 -101.5t-108.5 -252.5zM463 1075l145 291 h94l-192 -291h-47z" />
<glyph unicode="&#xea;" horiz-adv-x="968" d="M109 471q0 230 110.5 361t292.5 131q157 0 252.5 -100t95.5 -296v-61h-692q0 -237 95 -356t276 -119q149 0 254 102l41 -41q-115 -112 -295 -112q-206 0 -318 129t-112 362zM170 557h635v10q0 172 -79 258t-214 86q-141 0 -233.5 -101.5t-108.5 -252.5zM342 1075l145 291 h48l145 -291h-59l-111 219l-109 -219h-59z" />
<glyph unicode="&#xeb;" horiz-adv-x="968" d="M109 471q0 230 110.5 361t292.5 131q157 0 252.5 -100t95.5 -296v-61h-692q0 -237 95 -356t276 -119q149 0 254 102l41 -41q-115 -112 -295 -112q-206 0 -318 129t-112 362zM170 557h635v10q0 172 -79 258t-214 86q-141 0 -233.5 -101.5t-108.5 -252.5zM328 1253v113h112 v-113h-112zM553 1253v113h111v-113h-111z" />
<glyph unicode="&#xec;" horiz-adv-x="440" d="M55 1366h97l145 -291h-49zM190 0v942h58v-942h-58z" />
<glyph unicode="&#xed;" horiz-adv-x="440" d="M143 1075l146 291h94l-193 -291h-47zM190 0v942h58v-942h-58z" />
<glyph unicode="&#xee;" horiz-adv-x="440" d="M51 1075l146 291h47l145 -291h-59l-111 219l-108 -219h-60zM190 0v942h58v-942h-58z" />
<glyph unicode="&#xef;" horiz-adv-x="440" d="M51 1253v113h113v-113h-113zM190 0v942h58v-942h-58zM276 1253v113h111v-113h-111z" />
<glyph unicode="&#xf0;" horiz-adv-x="1024" d="M109 406q0 180 109.5 302.5t293.5 122.5q103 0 186 -49t133 -137q-42 132 -124 257t-191 228l-178 -178l-37 37l176 176q-130 114 -272 181l41 40q144 -69 270 -180l180 180l37 -36l-178 -179q164 -157 262 -358t98 -407q0 -180 -109.5 -303t-293.5 -123t-293.5 123 t-109.5 303zM168 406q0 -162 97 -268.5t247 -106.5t247 106.5t97 268.5t-97 268t-247 106t-247 -106t-97 -268z" />
<glyph unicode="&#xf1;" horiz-adv-x="1079" d="M190 0v942h56v-231q44 110 134.5 181t219.5 71q134 0 210.5 -83t76.5 -251v-629h-53v621q0 145 -64.5 217.5t-169.5 72.5q-156 0 -255 -116.5t-99 -288.5v-506h-56zM225 1186q0 67 53.5 111t122.5 44q43 0 79 -19t57 -42t51.5 -42t62.5 -19q43 0 80 30t37 72h59 q0 -67 -53.5 -111.5t-122.5 -44.5q-35 0 -64.5 12.5t-50.5 30.5t-40.5 36.5t-43.5 31t-51 12.5q-43 0 -79.5 -29.5t-36.5 -72.5h-60z" />
<glyph unicode="&#xf2;" horiz-adv-x="1024" d="M109 471q0 230 110.5 361t292.5 131t292.5 -131t110.5 -361t-110.5 -360.5t-292.5 -130.5t-292.5 130.5t-110.5 360.5zM168 471q0 -202 94.5 -321t249.5 -119t249.5 119t94.5 321t-94.5 321t-249.5 119t-249.5 -119t-94.5 -321zM319 1366h97l145 -291h-49z" />
<glyph unicode="&#xf3;" horiz-adv-x="1024" d="M109 471q0 230 110.5 361t292.5 131t292.5 -131t110.5 -361t-110.5 -360.5t-292.5 -130.5t-292.5 130.5t-110.5 360.5zM168 471q0 -202 94.5 -321t249.5 -119t249.5 119t94.5 321t-94.5 321t-249.5 119t-249.5 -119t-94.5 -321zM463 1075l145 291h94l-192 -291h-47z" />
<glyph unicode="&#xf4;" horiz-adv-x="1024" d="M109 471q0 230 110.5 361t292.5 131t292.5 -131t110.5 -361t-110.5 -360.5t-292.5 -130.5t-292.5 130.5t-110.5 360.5zM168 471q0 -202 94.5 -321t249.5 -119t249.5 119t94.5 321t-94.5 321t-249.5 119t-249.5 -119t-94.5 -321zM342 1075l145 291h48l145 -291h-59 l-111 219l-109 -219h-59z" />
<glyph unicode="&#xf5;" horiz-adv-x="1024" d="M109 471q0 230 110.5 361t292.5 131t292.5 -131t110.5 -361t-110.5 -360.5t-292.5 -130.5t-292.5 130.5t-110.5 360.5zM168 471q0 -202 94.5 -321t249.5 -119t249.5 119t94.5 321t-94.5 321t-249.5 119t-249.5 -119t-94.5 -321zM213 1186q0 67 53.5 111t122.5 44 q43 0 79 -19t57 -42t51.5 -42t62.5 -19q43 0 80 30t37 72h59q0 -67 -53.5 -111.5t-122.5 -44.5q-35 0 -64.5 12.5t-50.5 30.5t-40.5 36.5t-43.5 31t-51 12.5q-43 0 -80 -30t-37 -72h-59z" />
<glyph unicode="&#xf6;" horiz-adv-x="1024" d="M109 471q0 230 110.5 361t292.5 131t292.5 -131t110.5 -361t-110.5 -360.5t-292.5 -130.5t-292.5 130.5t-110.5 360.5zM168 471q0 -202 94.5 -321t249.5 -119t249.5 119t94.5 321t-94.5 321t-249.5 119t-249.5 -119t-94.5 -321zM344 1253v113h113v-113h-113zM569 1253 v113h111v-113h-111z" />
<glyph unicode="&#xf7;" d="M137 643v51h778v-51h-778zM465 281v122h123v-122h-123zM465 936v123h123v-123h-123z" />
<glyph unicode="&#xf8;" horiz-adv-x="1024" d="M109 471q0 230 110.5 361t292.5 131q134 0 236 -76l77 123h54l-99 -154q135 -135 135 -385q0 -230 -110.5 -360.5t-292.5 -130.5q-135 0 -236 75l-77 -123h-54l99 154q-135 135 -135 385zM168 471q0 -214 106 -336l443 703q-85 73 -205 73q-155 0 -249.5 -119t-94.5 -321 zM307 104q85 -73 205 -73q155 0 249.5 119t94.5 321q0 214 -106 336z" />
<glyph unicode="&#xf9;" horiz-adv-x="1079" d="M190 313v629h56v-620q0 -145 64 -218t167 -73q157 0 257 116.5t100 288.5v506h53v-942h-53v231q-44 -109 -135 -180t-222 -71q-133 0 -210 83t-77 250zM346 1366h96l146 -291h-49z" />
<glyph unicode="&#xfa;" horiz-adv-x="1079" d="M190 313v629h56v-620q0 -145 64 -218t167 -73q157 0 257 116.5t100 288.5v506h53v-942h-53v231q-44 -109 -135 -180t-222 -71q-133 0 -210 83t-77 250zM492 1075l145 291h94l-192 -291h-47z" />
<glyph unicode="&#xfb;" horiz-adv-x="1079" d="M190 313v629h56v-620q0 -145 64 -218t167 -73q157 0 257 116.5t100 288.5v506h53v-942h-53v231q-44 -109 -135 -180t-222 -71q-133 0 -210 83t-77 250zM369 1075l145 291h47l146 -291h-60l-110 219l-109 -219h-59z" />
<glyph unicode="&#xfc;" horiz-adv-x="1079" d="M190 313v629h56v-620q0 -145 64 -218t167 -73q157 0 257 116.5t100 288.5v506h53v-942h-53v231q-44 -109 -135 -180t-222 -71q-133 0 -210 83t-77 250zM371 1253v113h112v-113h-112zM596 1253v113h111v-113h-111z" />
<glyph unicode="&#xfd;" horiz-adv-x="833" d="M41 942h61l314 -850l315 850h62l-480 -1284q-38 -102 -176 -102q-46 0 -94 20v53q39 -20 94 -20q101 0 123 67l127 340zM369 1075l145 291h94l-192 -291h-47z" />
<glyph unicode="&#xfe;" horiz-adv-x="1101" d="M190 -424v1790h56v-655q45 112 129.5 182t214.5 70q182 0 292.5 -131t110.5 -361t-110.5 -360.5t-292.5 -130.5q-130 0 -215 69.5t-129 181.5v-655h-56zM246 471q0 -202 94.5 -321t249.5 -119t249.5 119t94.5 321t-94.5 321t-249.5 119t-249.5 -119t-94.5 -321z" />
<glyph unicode="&#xff;" horiz-adv-x="833" d="M41 942h61l314 -850l315 850h62l-480 -1284q-38 -102 -176 -102q-46 0 -94 20v53q39 -20 94 -20q101 0 123 67l127 340zM248 1253v113h112v-113h-112zM473 1253v113h111v-113h-111z" />
<glyph unicode="&#x152;" horiz-adv-x="1961" d="M123 682q0 205 63 364.5t188 253t296 93.5q177 0 302.5 -98.5t188.5 -272.5v344h643v-53h-583v-594h571v-53h-571v-615h598v-51h-658v342q-63 -173 -188.5 -271t-302.5 -98q-171 0 -296.5 94t-188 253t-62.5 362zM188 682q0 -190 55.5 -336t166.5 -230.5t264 -84.5 t264.5 84.5t167 230.5t55.5 336t-55.5 336.5t-167 231.5t-264.5 85t-264 -85t-166.5 -231.5t-55.5 -336.5z" />
<glyph unicode="&#x153;" horiz-adv-x="1716" d="M109 471q0 230 110.5 361t292.5 131q139 0 240 -85t133 -233q35 149 135.5 233.5t239.5 84.5q156 0 252 -100t96 -296v-61h-693q0 -237 95 -356t276 -119q150 0 252 102l41 -41q-112 -112 -293 -112q-163 0 -263.5 83.5t-135.5 233.5q-37 -150 -136.5 -233.5 t-238.5 -83.5q-182 0 -292.5 130.5t-110.5 360.5zM168 471q0 -202 94.5 -321t249.5 -119t249.5 119t94.5 321t-94.5 321t-249.5 119t-249.5 -119t-94.5 -321zM918 557h634v10q0 172 -78.5 258t-213.5 86q-142 0 -235 -102t-107 -252z" />
<glyph unicode="&#x178;" horiz-adv-x="1071" d="M27 1366h73l435 -647l436 647h71l-477 -696v-670h-59v670zM365 1663v113h112v-113h-112zM590 1663v113h110v-113h-110z" />
<glyph unicode="&#x2c6;" horiz-adv-x="440" d="M51 1075l146 291h47l145 -291h-59l-111 219l-108 -219h-60z" />
<glyph unicode="&#x2dc;" horiz-adv-x="778" d="M88 1186q0 67 53.5 111t122.5 44q43 0 79 -19t57 -42t51.5 -42t62.5 -19q43 0 80 30t37 72h59q0 -67 -53.5 -111.5t-122.5 -44.5q-35 0 -64.5 12.5t-50.5 30.5t-40.5 36.5t-43.5 31t-51 12.5q-43 0 -80 -30t-37 -72h-59z" />
<glyph unicode="&#x2000;" horiz-adv-x="901" />
<glyph unicode="&#x2001;" horiz-adv-x="1802" />
<glyph unicode="&#x2002;" horiz-adv-x="901" />
<glyph unicode="&#x2003;" horiz-adv-x="1802" />
<glyph unicode="&#x2004;" horiz-adv-x="600" />
<glyph unicode="&#x2005;" horiz-adv-x="450" />
<glyph unicode="&#x2006;" horiz-adv-x="300" />
<glyph unicode="&#x2007;" horiz-adv-x="300" />
<glyph unicode="&#x2008;" horiz-adv-x="225" />
<glyph unicode="&#x2009;" horiz-adv-x="360" />
<glyph unicode="&#x200a;" horiz-adv-x="100" />
<glyph unicode="&#x2010;" horiz-adv-x="681" d="M123 485v54h436v-54h-436z" />
<glyph unicode="&#x2011;" horiz-adv-x="681" d="M123 485v54h436v-54h-436z" />
<glyph unicode="&#x2012;" horiz-adv-x="681" d="M123 485v54h436v-54h-436z" />
<glyph unicode="&#x2013;" horiz-adv-x="1120" d="M123 485v54h874v-54h-874z" />
<glyph unicode="&#x2014;" horiz-adv-x="2048" d="M123 485v54h1802v-54h-1802z" />
<glyph unicode="&#x2018;" horiz-adv-x="477" d="M164 1010l117 356h57l-66 -356h-108z" />
<glyph unicode="&#x2019;" horiz-adv-x="477" d="M141 1010l64 356h108l-116 -356h-56z" />
<glyph unicode="&#x201a;" horiz-adv-x="477" d="M141 -231l64 354h108l-116 -354h-56z" />
<glyph unicode="&#x201c;" horiz-adv-x="681" d="M164 1010l117 356h57l-66 -356h-108zM369 1010l116 356h58l-66 -356h-108z" />
<glyph unicode="&#x201d;" horiz-adv-x="681" d="M141 1010l64 356h108l-116 -356h-56zM346 1010l64 356h108l-117 -356h-55z" />
<glyph unicode="&#x201e;" horiz-adv-x="1120" d="M123 485v54h874v-54h-874z" />
<glyph unicode="&#x2022;" horiz-adv-x="573" d="M205 547q0 34 24 58t58 24t58 -24t24 -58t-24 -58t-58 -24t-58 24t-24 58z" />
<glyph unicode="&#x2026;" horiz-adv-x="1433" d="M178 0v123h123v-123h-123zM655 0v123h123v-123h-123zM1133 0v123h122v-123h-122z" />
<glyph unicode="&#x202f;" horiz-adv-x="360" />
<glyph unicode="&#x2039;" horiz-adv-x="497" d="M137 471l191 383h59l-192 -383l192 -383h-59z" />
<glyph unicode="&#x203a;" horiz-adv-x="497" d="M113 88l190 383l-190 383h57l192 -383l-192 -383h-57z" />
<glyph unicode="&#x205f;" horiz-adv-x="450" />
<glyph unicode="&#x20ac;" horiz-adv-x="1239" d="M27 522v51h155q-4 35 -4 109t4 111h-155v51h163q36 248 183.5 398.5t376.5 150.5q110 0 205 -38t161 -104l-43 -45q-126 129 -323 129q-202 0 -330.5 -133t-163.5 -358h590v-51h-598q-4 -37 -4 -111t4 -109h598v-51h-590q36 -224 167 -357.5t327 -133.5t323 127l43 -43 q-66 -67 -160.5 -104.5t-205.5 -37.5q-225 0 -373.5 150.5t-186.5 398.5h-163z" />
<glyph unicode="&#x2122;" horiz-adv-x="798" d="M68 1335v31h245v-31h-102v-311h-33v311h-110zM375 1024v342h47l96 -283l98 283h46v-342h-33v289l-97 -289h-26l-98 289v-289h-33z" />
<glyph unicode="&#x25fc;" horiz-adv-x="942" d="M0 0v942h942v-942h-942z" />
<glyph unicode="&#xfb01;" horiz-adv-x="1067" d="M41 891v51h199v240q0 204 190 204q48 0 96 -20v-53q-41 20 -96 20q-73 0 -105 -34.5t-32 -116.5v-240h233v-51h-233v-891h-53v891h-199zM793 1253v113h110v-113h-110zM819 0v942h58v-942h-58z" />
<glyph unicode="&#xfb02;" horiz-adv-x="1040" d="M41 891v51h199v240q0 204 190 204q48 0 96 -20v-53q-41 20 -96 20q-73 0 -105 -34.5t-32 -116.5v-240h233v-51h-233v-891h-53v891h-199zM793 0v1366h57v-1366h-57z" />
</font>
</defs>
</svg>
